<?xml version="1.0" encoding="utf-8"?>
<!-- Generator: Adobe Illustrator 24.2.3, SVG Export Plug-In . SVG Version: 6.00 Build 0)  -->
<svg version="1.1" id="Ebene_1" xmlns="http://www.w3.org/2000/svg" xmlns:xlink="http://www.w3.org/1999/xlink" x="0px" y="0px"
	 viewBox="0 0 366 441" style="enable-background:new 0 0 366 441;" xml:space="preserve">
<style type="text/css">
	.st0{fill:url(#SVGID_2_);}
	.st1{fill:url(#SVGID_3_);}
	.st2{fill:url(#SVGID_4_);}
	.st3{fill:url(#SVGID_5_);}
	.st4{fill:url(#SVGID_6_);}
	.st5{fill:url(#SVGID_7_);}
	.st6{fill:url(#SVGID_8_);}
	.st7{fill:url(#SVGID_9_);}
	.st8{fill:url(#SVGID_10_);}
	.st9{fill:url(#SVGID_11_);}
	.st10{fill:url(#SVGID_12_);}
	.st11{fill:#B3FFE9;}
	.st12{clip-path:url(#SVGID_15_);}
	.st13{clip-path:url(#SVGID_16_);fill:url(#SVGID_17_);}
	.st14{opacity:0.69;fill:url(#SVGID_18_);enable-background:new    ;}
	.st15{fill:url(#SVGID_19_);}
</style>
<g>
	
		<linearGradient id="SVGID_2_" gradientUnits="userSpaceOnUse" x1="344.0759" y1="593.2928" x2="184.12" y2="479.3696" gradientTransform="matrix(0.9996 -2.990000e-02 -2.990000e-02 -0.9996 -76.311 604.2286)">
		<stop  offset="0" style="stop-color:#335D95"/>
		<stop  offset="1" style="stop-color:#2F4288"/>
	</linearGradient>
	<path class="st0" d="M92.7,110.3c0,0-13.8-90.2,59-104.4c73-14.2,96.4,75.6,96.4,75.6s-22.6,5.4-80.5,16.5
		C112,108.8,92.7,110.3,92.7,110.3z"/>
	<g>
		
			<linearGradient id="SVGID_3_" gradientUnits="userSpaceOnUse" x1="480.5336" y1="-396.9851" x2="379.8567" y2="-468.6889" gradientTransform="matrix(0.979 -0.2035 -0.2035 -0.979 -338.6465 -274.1664)">
			<stop  offset="0" style="stop-color:#FFFBC2"/>
			<stop  offset="1" style="stop-color:#00A9BB"/>
		</linearGradient>
		<path class="st1" d="M125.2,75.4c1.4-0.3,2.7-0.9,3.9-1.6c1.6,1.3,3.1,2.7,4.4,4.4c1.6,2.1,2.8,4.5,3.5,7c0.1,0.3,0.3,1,0.5,1.8
			c-3.8,3.3-7.1,7.3-9.6,11.6c-0.4,0.7-0.8,1.5-0.7,2.4c0.1,1.2,1.2,1.9,2.4,2.4c25.5-9.1,52.2-14.8,79.4-16.8
			c0.6-0.4,1.1-0.7,1.7-1.1c-4.8-3.9-10.3-6.8-16.1-8.7c-0.5-0.2-1.1-0.3-1.6-0.5c-0.4-4.7,0.2-9.4,1.9-13.8c0.6,0,1.3-0.1,1.9-0.2
			c6.4-1.3,10.5-7.6,9.1-13.9c-1.3-6.4-7.6-10.5-13.9-9.1c-6.4,1.3-10.5,7.6-9.1,13.9c0.7,3.3,2.7,6,5.4,7.6
			c-1.4,4.9-3.9,9.5-7.3,13.3c-3.6-0.3-7.3-0.2-11,0.1c-3.2-5.1-4.8-11.3-6.3-17.3c-1.4-5.4-2.7-10.8-3.5-16.3
			c4-2.6,6.2-7.4,5.2-12.3c-1.3-6.4-7.6-10.5-13.9-9.1c-6.4,1.3-10.5,7.6-9.1,13.9c1.1,5.4,5.8,9.1,11.1,9.4
			c0.1,0.2,0.2,0.4,0.3,0.6c1.6,3.8,2.9,7.8,3.9,11.8c1,4.2,1.8,8.4,2.1,12.7c0.1,0.7,0,5.1,0,8.4c-0.6,0.1-1.2,0.3-1.7,0.4
			c-3.7,1-7.3,2.3-10.8,4c-1.1,0.6-2.2,1.2-3.3,1.9c-0.4-0.5-0.8-1.1-1.3-1.6c-3.1-3.4-6.5-7.4-9.4-11.1c1.3-2.4,1.8-5.2,1.2-8
			c-1.3-6.4-7.6-10.5-13.9-9.1c-6.4,1.3-10.5,7.6-9.1,13.9C112.6,72.6,118.9,76.7,125.2,75.4z"/>
		
			<linearGradient id="SVGID_4_" gradientUnits="userSpaceOnUse" x1="374.7589" y1="-424.8561" x2="391.5093" y2="-424.8561" gradientTransform="matrix(0.979 -0.2035 -0.2035 -0.979 -338.6465 -274.1664)">
			<stop  offset="0" style="stop-color:#FFFFFF"/>
			<stop  offset="1" style="stop-color:#DEE9EC"/>
		</linearGradient>
		<path class="st2" d="M131.1,62.1c0.9,4.5-2,9-6.5,9.9s-9-2-9.9-6.5s2-9,6.5-9.9C125.7,54.7,130.2,57.6,131.1,62.1z"/>
		
			<linearGradient id="SVGID_5_" gradientUnits="userSpaceOnUse" x1="411.9623" y1="-398.4621" x2="428.7131" y2="-398.4621" gradientTransform="matrix(0.979 -0.2035 -0.2035 -0.979 -338.6465 -274.1664)">
			<stop  offset="0" style="stop-color:#FFFFFF"/>
			<stop  offset="1" style="stop-color:#DEE9EC"/>
		</linearGradient>
		<path class="st3" d="M162.1,28.7c0.9,4.5-2,9-6.5,9.9c-4.5,0.9-9-2-9.9-6.5s2-9,6.5-9.9C156.8,21.2,161.2,24.1,162.1,28.7z"/>
		
			<linearGradient id="SVGID_6_" gradientUnits="userSpaceOnUse" x1="447.673" y1="-427.0342" x2="464.4238" y2="-427.0342" gradientTransform="matrix(0.979 -0.2035 -0.2035 -0.979 -338.6465 -274.1664)">
			<stop  offset="0" style="stop-color:#FFFFFF"/>
			<stop  offset="1" style="stop-color:#DEE9EC"/>
		</linearGradient>
		<path class="st4" d="M202.9,49.4c0.9,4.5-2,9-6.5,9.9s-9-2-9.9-6.5s2-9,6.5-9.9C197.5,41.9,202,44.8,202.9,49.4z"/>
		
			<radialGradient id="SVGID_7_" cx="421.3058" cy="-398.1272" r="5.3501" gradientTransform="matrix(0.979 -0.2035 -0.2035 -0.979 -338.6465 -274.1664)" gradientUnits="userSpaceOnUse">
			<stop  offset="0" style="stop-color:#2F2677"/>
			<stop  offset="1" style="stop-color:#222044"/>
		</radialGradient>
		<path class="st5" d="M160.1,28.8c0.6,2.9-1.3,5.7-4.1,6.3c-2.9,0.6-5.7-1.3-6.3-4.1c-0.6-2.9,1.3-5.7,4.1-6.3
			C156.6,24,159.5,25.9,160.1,28.8z"/>
		
			<radialGradient id="SVGID_8_" cx="382.3936" cy="-425.1095" r="5.35" gradientTransform="matrix(0.979 -0.2035 -0.2035 -0.979 -338.6465 -274.1664)" gradientUnits="userSpaceOnUse">
			<stop  offset="0" style="stop-color:#2F2677"/>
			<stop  offset="1" style="stop-color:#222044"/>
		</radialGradient>
		<path class="st6" d="M127.5,63.1c0.6,2.9-1.3,5.7-4.1,6.3c-2.9,0.6-5.7-1.3-6.3-4.1c-0.6-2.9,1.3-5.7,4.1-6.3
			C124,58.4,126.9,60.2,127.5,63.1z"/>
		
			<radialGradient id="SVGID_9_" cx="456.041" cy="-426.9975" r="5.3501" gradientTransform="matrix(0.979 -0.2035 -0.2035 -0.979 -338.6465 -274.1664)" gradientUnits="userSpaceOnUse">
			<stop  offset="0" style="stop-color:#2F2677"/>
			<stop  offset="1" style="stop-color:#222044"/>
		</radialGradient>
		<path class="st7" d="M199.9,50c0.6,2.9-1.3,5.7-4.1,6.3c-2.9,0.6-5.7-1.3-6.3-4.1c-0.6-2.9,1.3-5.7,4.1-6.3
			C196.5,45.2,199.3,47.1,199.9,50z"/>
	</g>
	
		<linearGradient id="SVGID_10_" gradientUnits="userSpaceOnUse" x1="187.2798" y1="320.1226" x2="199.2749" y2="280.7099" gradientTransform="matrix(1 5.900000e-03 5.900000e-03 -1 -18.0404 432.5034)">
		<stop  offset="5.747130e-02" style="stop-color:#DBCFFF"/>
		<stop  offset="0.9962" style="stop-color:#A2E0F3"/>
	</linearGradient>
	<path class="st8" d="M342.2,94.7c2.6,13.4-56.7,42.9-161.5,62C84.9,174,10.5,171.9,7.9,158.6c-2.6-13.4,70.2-38.5,162.5-56.1
		C262.7,84.8,339.6,81.3,342.2,94.7z"/>
	
		<linearGradient id="SVGID_11_" gradientUnits="userSpaceOnUse" x1="96.7989" y1="315.5302" x2="274.4716" y2="348.8684" gradientTransform="matrix(1 5.900000e-03 5.900000e-03 -1 -18.0404 432.5034)">
		<stop  offset="5.747130e-02" style="stop-color:#6F67FF"/>
		<stop  offset="0.977" style="stop-color:#5754FE"/>
	</linearGradient>
	<path class="st9" d="M44,135.6c0,0,45.8-18.9,46.7-20.6c0.9-1.7,2-4.6,2-4.6s21.4-9.7,73.2-19.7c56.5-10.9,82.2-9.1,82.2-9.1
		s1.1,3.1,2.5,3.8c1.5,0.7,58.4,1.2,58.4,1.2s-53.1,6.9-139.4,23.4C82.1,126.6,44,135.6,44,135.6z"/>
	
		<linearGradient id="SVGID_12_" gradientUnits="userSpaceOnUse" x1="76.9678" y1="257.6625" x2="302.6027" y2="301.7986" gradientTransform="matrix(1 5.900000e-03 5.900000e-03 -1 -18.0404 432.5034)">
		<stop  offset="5.747130e-02" style="stop-color:#B3B5FF"/>
		<stop  offset="0.908" style="stop-color:#5538FE"/>
	</linearGradient>
	<path class="st10" d="M239.2,142.3c0.6,3.4-25.3,11.1-57.9,17.2c-32.6,6.1-59.5,8.4-60.2,5c-0.6-3.4,25-12.6,57.5-18.7
		C211.4,139.7,238.6,138.9,239.2,142.3z"/>
	<path class="st11" d="M231.8,145.9c0.4,2.1-22.1,8.6-50.3,13.9c-28.2,5.3-51.6,7.4-52,5.4l0,0c-0.2-2.1,22.2-8.7,50.3-14
		C207.9,145.9,231.2,143.9,231.8,145.9L231.8,145.9z"/>
	<g>
		<g>
			<defs>
				<polygon id="SVGID_13_" points="1,1 2,1 1,2 				"/>
			</defs>
			<defs>
				<polygon id="SVGID_14_" points="-1,-1 -2,-1 -1,-2 				"/>
			</defs>
			<clipPath id="SVGID_15_">
				<use xlink:href="#SVGID_13_"  style="overflow:visible;"/>
			</clipPath>
			<clipPath id="SVGID_16_" class="st12">
				<use xlink:href="#SVGID_14_"  style="overflow:visible;"/>
			</clipPath>
			
				<linearGradient id="SVGID_17_" gradientUnits="userSpaceOnUse" x1="186.9875" y1="290.4068" x2="242.5732" y2="26.1834" gradientTransform="matrix(1 0 0 -1 0 442)">
				<stop  offset="0" style="stop-color:#FFFFFF"/>
				<stop  offset="1" style="stop-color:#000000"/>
			</linearGradient>
			<path class="st13" d="M231.8,145.9C232.2,148,357.3,370,357.3,370s-31.2,48.3-120.2,60c-82.3,10.8-120.2-20.4-120.2-20.4
				s12.8-243.5,12.6-244.4l0,0c-0.2-2.1,22.2-8.7,50.3-14C207.9,145.9,231.2,143.9,231.8,145.9L231.8,145.9z"/>
		</g>
	</g>
	
		<linearGradient id="SVGID_18_" gradientUnits="userSpaceOnUse" x1="186.9875" y1="290.4068" x2="242.5732" y2="26.1834" gradientTransform="matrix(1 0 0 -1 0 442)">
		<stop  offset="0" style="stop-color:#B3FFE9"/>
		<stop  offset="0.8577" style="stop-color:#B3FFE9;stop-opacity:0"/>
	</linearGradient>
	<path class="st14" d="M231.8,145.9C232.2,148,357.3,370,357.3,370s-31.2,48.3-120.2,60c-82.3,10.8-120.2-20.4-120.2-20.4
		s12.8-243.5,12.6-244.4l0,0c-0.2-2.1,22.2-8.7,50.3-14C207.9,145.9,231.2,143.9,231.8,145.9L231.8,145.9z"/>
	
		<linearGradient id="SVGID_19_" gradientUnits="userSpaceOnUse" x1="201.5383" y1="256.6665" x2="180.8239" y2="358.3555" gradientTransform="matrix(1 5.900000e-03 5.900000e-03 -1 -18.0404 432.5034)">
		<stop  offset="5.747130e-02" style="stop-color:#EBE0FF"/>
		<stop  offset="0.977" style="stop-color:#5754FE"/>
	</linearGradient>
	<path class="st15" d="M168.5,118.7C222.7,108,271.1,100,327,98.3c4.9-0.1,9.7-0.2,14.6-0.1c0.6-1.3,0.8-2.5,0.6-3.6
		c-2.6-13.4-79.5-9.9-171.8,7.8S5.4,145.2,7.9,158.6c0.2,1.1,0.9,2.1,2.1,3.1C40.8,150.1,120.5,128,168.5,118.7z"/>
</g>
</svg>
