<?xml version="1.0" encoding="utf-8"?>
<!-- Generator: Adobe Illustrator 25.2.1, SVG Export Plug-In . SVG Version: 6.00 Build 0)  -->
<svg version="1.1" id="Ebene_1" xmlns="http://www.w3.org/2000/svg" xmlns:xlink="http://www.w3.org/1999/xlink" x="0px" y="0px"
	 viewBox="0 0 320 632" style="enable-background:new 0 0 320 632;" xml:space="preserve">
<style type="text/css">
	.st0{fill:url(#SVGID_1_);}
	.st1{fill:url(#SVGID_2_);}
	.st2{fill:url(#SVGID_3_);}
	.st3{fill:url(#SVGID_4_);}
	.st4{fill:url(#SVGID_5_);}
	.st5{fill:url(#SVGID_6_);}
	.st6{fill:url(#SVGID_7_);}
	.st7{fill:url(#SVGID_8_);}
	.st8{fill:url(#SVGID_9_);}
	.st9{fill:url(#SVGID_10_);}
	.st10{fill:url(#SVGID_11_);}
	.st11{fill:url(#SVGID_12_);}
	.st12{fill:url(#SVGID_13_);}
	.st13{fill:url(#SVGID_14_);}
	.st14{fill:url(#SVGID_15_);}
	.st15{opacity:0.79;fill:url(#SVGID_16_);}
	.st16{fill:url(#SVGID_17_);}
	.st17{fill:url(#SVGID_18_);}
	.st18{fill:url(#SVGID_19_);}
	.st19{fill:#FFFDFC;}
	.st20{fill:url(#SVGID_20_);}
	.st21{fill:url(#SVGID_21_);}
	.st22{fill:#FFFFFF;}
	.st23{fill:#28277C;}
	.st24{opacity:0.38;fill:url(#SVGID_22_);}
	.st25{opacity:0.35;fill:#FFFFFF;}
	.st26{fill:url(#SVGID_23_);}
	.st27{fill:url(#SVGID_24_);}
	.st28{fill:url(#SVGID_25_);}
	.st29{fill:url(#SVGID_26_);}
	.st30{fill:url(#SVGID_27_);}
	.st31{fill:url(#SVGID_28_);}
	.st32{fill:url(#SVGID_29_);}
	.st33{fill:url(#SVGID_30_);}
	.st34{fill:url(#SVGID_31_);}
	.st35{fill:url(#SVGID_32_);}
	.st36{fill:url(#SVGID_33_);}
	.st37{fill:url(#SVGID_34_);}
	.st38{fill:url(#SVGID_35_);}
	.st39{fill:url(#SVGID_36_);}
	.st40{fill:url(#SVGID_37_);}
	.st41{fill:url(#SVGID_38_);}
	.st42{fill:url(#SVGID_39_);}
	.st43{fill:url(#SVGID_40_);}
	.st44{fill:url(#SVGID_41_);}
	.st45{fill:url(#SVGID_42_);}
	.st46{fill:url(#SVGID_43_);}
	.st47{fill:url(#SVGID_44_);}
	.st48{fill:url(#SVGID_45_);}
	.st49{fill:url(#SVGID_46_);}
	.st50{fill:url(#SVGID_47_);}
	.st51{fill:url(#SVGID_48_);}
	.st52{fill:url(#SVGID_49_);}
	.st53{fill:url(#SVGID_50_);}
	.st54{fill:url(#SVGID_51_);}
	.st55{fill:url(#SVGID_52_);}
	.st56{fill:url(#SVGID_53_);}
	.st57{fill:#00A1BE;}
</style>
<g>
	<g>
		
			<linearGradient id="SVGID_1_" gradientUnits="userSpaceOnUse" x1="364.8113" y1="108.8379" x2="412.741" y2="108.8379" gradientTransform="matrix(0.9736 -0.2282 0.2282 0.9736 -139.0826 83.1049)">
			<stop  offset="0" style="stop-color:#FFFFFF"/>
			<stop  offset="1" style="stop-color:#FFC1BB"/>
		</linearGradient>
		<path class="st0" d="M277.2,78.7c1.2-1.4,3.7-1.9,4.4,0.7c0.6,2.5-2.9,13.6-4.5,18c-0.1,0.4-0.3,0.7-0.2,1.1
			c0.1,0.4,0.5,0.7,0.8,0.5c0.2-0.1,0.3-0.3,0.4-0.6c1.3-2.8,4.5-7.6,5.9-8.5c1.3-0.9,2.7,0,2.6,1.2c-0.2,2.1-4.6,13.1-5.9,16.2
			c-2.6,6.2-5.2,12.3-7.9,18.5c-0.1,0.2-0.1,0.3-0.3,0.4c-0.3,0.3-0.9,0.2-1.3,0.1c-3.1-0.9-6.2-1.6-9.4-1.9
			c-3.4-0.4-6.7-0.7-10.1-1.2c0.1-3.6,0.2-7.2-0.8-10.7c-1.6-5.5-5.9-10-10.9-12.9c-0.5-0.3-1-0.6-1-1.1c0-0.5,0.5-0.9,0.9-1.2
			c1.5-0.8,3.4-1.3,5.1-1.1c1.7,0.1,3.2,1.2,4.7,2c0.8,0.4,1.7,0.8,2.5,0.7c2.4-0.3,2-4.4,2-6.1c-0.1-4-0.1-8,0-12
			c0.1-1.6,0.2-3.2,0.7-4.7c0.5-1.3,2.3-1.4,3.4-0.7c1.2,0.9,1.4,2.5,1.5,4c0.1,1.7,0.2,3.5,0.4,5.2c0.1,1.6,0.4,2.9,0.7,4.5
			c0.1,0.4,0.2,0.9,0.5,1.3c0.3,0.3,0.9,0.5,1.2,0.2c0.5-4.4,1-8.8,1.4-13.2c0.2-1.6,0.4-3.2,1.3-4.4c0.6-0.9,1.7-1.5,2.7-1.4
			c1.1,0.1,2,1,2.3,2.1c0.4,1,0.4,2.1,0.4,3.2c0,1.6-2,14.1-0.4,14.6C271.7,91.8,274.4,82,277.2,78.7z"/>
		
			<linearGradient id="SVGID_2_" gradientUnits="userSpaceOnUse" x1="82.2546" y1="576.3289" x2="129.3874" y2="576.3289" gradientTransform="matrix(0.9907 -0.1363 0.1363 0.9907 -53.1634 48.6337)">
			<stop  offset="0" style="stop-color:#FFFFFF"/>
			<stop  offset="1" style="stop-color:#FFC1BB"/>
		</linearGradient>
		<path class="st1" d="M127.5,583.9c-1.5,1.4-2.2,0.5-2.7,3.7c-0.5,3.9-4.2,8.6-7,11.4c-2.8,2.9-6.1,6.6-8.3,10
			c-3.5,5.5-0.7,16.6,4.6,18.1c4.9,1.4,21.7-0.8,21.7-0.8s2-2.2,5.5-5.2c4-3.5,5.3-9.1,6.4-14.3c1.5-7.2,3.1-24.5,3.1-24.5
			S128.8,582.7,127.5,583.9z"/>
		
			<linearGradient id="SVGID_3_" gradientUnits="userSpaceOnUse" x1="104.8832" y1="577.2609" x2="130.264" y2="577.2609" gradientTransform="matrix(0.9907 -0.1363 0.1363 0.9907 -53.1634 48.6337)">
			<stop  offset="0" style="stop-color:#C788C7"/>
			<stop  offset="1" style="stop-color:#FFB3B1"/>
		</linearGradient>
		<path class="st2" d="M132.7,624.7c5,7.6,15.4-12.4,17.7-16.3c1.1-2,2.2-4,2.8-6.1c1.8-6.3-1.4-13.6-2.3-19.9
			c-6.1,9.2-14.5,19.7-18.6,28.6C129.6,616.8,132.2,624,132.7,624.7z"/>
		
			<linearGradient id="SVGID_4_" gradientUnits="userSpaceOnUse" x1="-1022.485" y1="566.99" x2="-975.3484" y2="566.99" gradientTransform="matrix(-0.9592 0.2826 0.2826 0.9592 -829.0094 310.1406)">
			<stop  offset="0" style="stop-color:#FFFFFF"/>
			<stop  offset="1" style="stop-color:#FFC1BB"/>
		</linearGradient>
		<path class="st3" d="M283.1,551.1c1.9,0.7,2.2-0.5,4,2.3c2.1,3.4,7.3,6.1,11,7.5c3.7,1.5,8.3,3.5,11.7,5.7
			c5.5,3.6,7.5,14.8,3.2,18.4c-3.9,3.3-20.1,8.2-20.1,8.2s-2.8-1.1-7.2-2.5c-5.1-1.6-8.5-6.1-11.7-10.4c-4.3-5.9-12.9-21-12.9-21
			S281.4,550.6,283.1,551.1z"/>
		
			<linearGradient id="SVGID_5_" gradientUnits="userSpaceOnUse" x1="-999.855" y1="567.9223" x2="-974.472" y2="567.9223" gradientTransform="matrix(-0.9592 0.2826 0.2826 0.9592 -829.0094 310.1406)">
			<stop  offset="0" style="stop-color:#C788C7"/>
			<stop  offset="1" style="stop-color:#FFB3B1"/>
		</linearGradient>
		<path class="st4" d="M295.2,590.5c-1.4,8.9-19.1-4.9-22.8-7.6c-1.8-1.3-3.6-2.7-5.1-4.4c-4.2-5.1-4.3-13-6.1-19.1
			c9.3,5.8,21.3,12,28.7,18.4C294.8,582,295.3,589.6,295.2,590.5z"/>
		
			<linearGradient id="SVGID_6_" gradientUnits="userSpaceOnUse" x1="-860.0598" y1="405.6275" x2="-827.6725" y2="488.252" gradientTransform="matrix(-0.9643 0.2647 0.2647 0.9643 -682.967 262.0425)">
			<stop  offset="0" style="stop-color:#FFFFFF"/>
			<stop  offset="1" style="stop-color:#FFC1BB"/>
		</linearGradient>
		<path class="st5" d="M218.8,481.2c8.7,25.2,42.3,78.1,42.3,78.1s5.2,1.4,13.5-1c5.8-1.6,11.9-5.6,11.9-5.6l-2.3-8.7l-32.2-111.1
			l-19,2.2l-27,3.1C206.1,438.2,209.7,454.7,218.8,481.2z"/>
		
			<linearGradient id="SVGID_7_" gradientUnits="userSpaceOnUse" x1="-844.6849" y1="319.8892" x2="-776.4483" y2="319.8892" gradientTransform="matrix(-0.9749 0.2227 0.2227 0.9749 -658.7015 243.8995)">
			<stop  offset="0" style="stop-color:#FFFFFF"/>
			<stop  offset="1" style="stop-color:#FFC1BB"/>
		</linearGradient>
		<path class="st6" d="M204.2,431.6c-6.5-2.3-36-63-42.1-81.2c-0.3-0.9,3.9-14.2,30.9-30.1c12.1-7.1,20.5-10.1,20.9-9.4
			c11.4,19.7,34.2,105.9,34,109.7C247.4,428.1,218.2,436.6,204.2,431.6z"/>
		
			<linearGradient id="SVGID_8_" gradientUnits="userSpaceOnUse" x1="-838.2841" y1="540.8915" x2="-829.4001" y2="405.4104" gradientTransform="matrix(-0.9643 0.2647 0.2647 0.9643 -682.967 262.0425)">
			<stop  offset="0" style="stop-color:#C788C7"/>
			<stop  offset="1" style="stop-color:#FFB3B1"/>
		</linearGradient>
		<path class="st7" d="M218.8,481.2c8.7,25.2,42.3,78.1,42.3,78.1s5.2,1.4,13.5-1c5.8-1.6,11.9-5.6,11.9-5.6l-2.3-8.7
			c-3.2,0.9-12.6,3.3-17.3,3.3c-5.8-0.1-13.5-16.9-24-39.1c-10.4-22.2-17.9-42.7-16.5-48.2c1.4-5.6,12-10.2,12-10.2l-5.4-14.7
			l-27,3.1C206.1,438.2,209.7,454.7,218.8,481.2z"/>
		
			<linearGradient id="SVGID_9_" gradientUnits="userSpaceOnUse" x1="-818.7435" y1="415.9677" x2="-848.6359" y2="416.5668" gradientTransform="matrix(-0.9592 0.2826 0.2826 0.9592 -701.9953 272.7224)">
			<stop  offset="0" style="stop-color:#D3A993"/>
			<stop  offset="1" style="stop-color:#C7656F"/>
		</linearGradient>
		<path class="st8" d="M207.5,445c1.9,1.5,7.5,0.4,16,5.2c-2.9-4.6-5.3-9.4-6.8-14.6c-0.8-2.6-2.9-13.4-2.3-15.1
			c-4.2,6.2-11.2,8.9-12.8,8.7C202,433.9,206,443.9,207.5,445z"/>
		
			<linearGradient id="SVGID_10_" gradientUnits="userSpaceOnUse" x1="-871.5216" y1="415.5181" x2="-850.8931" y2="415.5181" gradientTransform="matrix(-0.9592 0.2826 0.2826 0.9592 -701.9953 272.7224)">
			<stop  offset="0" style="stop-color:#D3A993"/>
			<stop  offset="1" style="stop-color:#C7656F"/>
		</linearGradient>
		<path class="st9" d="M253,433.3c-0.1,0.3-0.5,0.5-0.7,0.7c-2.3,1.9-3.7,5.5-5.4,7.7c-4.5-7.1-5.6-20.3-9.3-27.9
			c2,1.3,6.1,3,8.8,3.4c0.5,0.1,1.8-0.1,2.1,0.3C249.8,419.3,253.6,431.5,253,433.3z"/>
		
			<linearGradient id="SVGID_11_" gradientUnits="userSpaceOnUse" x1="-858.577" y1="393.7326" x2="-847.3542" y2="422.0796" gradientTransform="matrix(-0.9592 0.2826 0.2826 0.9592 -701.9953 272.7224)">
			<stop  offset="0" style="stop-color:#D3A993"/>
			<stop  offset="1" style="stop-color:#C7656F"/>
		</linearGradient>
		<path class="st10" d="M213.3,436.8c3.4,11.6,14,18.7,23.6,15.9c9.6-2.8,14.6-14.5,11.2-26.1c-3.4-11.6-14-18.7-23.6-15.9
			C214.9,413.5,209.9,425.2,213.3,436.8z"/>
		
			<linearGradient id="SVGID_12_" gradientUnits="userSpaceOnUse" x1="-860.0812" y1="394.3134" x2="-848.0703" y2="414.5383" gradientTransform="matrix(-0.9592 0.2826 0.2826 0.9592 -701.9953 272.7224)">
			<stop  offset="0" style="stop-color:#D3957A"/>
			<stop  offset="1" style="stop-color:#BA5160"/>
		</linearGradient>
		<path class="st11" d="M225.2,414.1c0,0-13.9,7.1-8.3,22.3c6.2,16.7,20.9,13,20.9,13s-9.6-2.6-14-12.8
			C217.6,422.3,225.2,414.1,225.2,414.1z"/>
		
			<linearGradient id="SVGID_13_" gradientUnits="userSpaceOnUse" x1="111.7317" y1="434.5034" x2="144.1191" y2="517.1279" gradientTransform="matrix(0.9879 -0.1548 0.1548 0.9879 -74.9943 45.3299)">
			<stop  offset="0" style="stop-color:#FFFFFF"/>
			<stop  offset="1" style="stop-color:#FFC1BB"/>
		</linearGradient>
		<path class="st12" d="M157.4,493.7c2.4,26.5-6.5,88.6-6.5,88.6s-4.2,3.4-12.7,4.7c-6,0.9-13.2-0.3-13.2-0.3l-1.5-8.9l-16.2-114.5
			l18.2-5.8l25.8-8.3C151.3,449.2,154.8,465.8,157.4,493.7z"/>
		
			<linearGradient id="SVGID_14_" gradientUnits="userSpaceOnUse" x1="125.4331" y1="390.5822" x2="194.152" y2="390.5822" gradientTransform="matrix(0.9803 -0.1974 0.1974 0.9803 -105.0339 39.0072)">
			<stop  offset="0" style="stop-color:#FFFFFF"/>
			<stop  offset="1" style="stop-color:#FFC1BB"/>
		</linearGradient>
		<path class="st13" d="M150.3,442.4c5-4.8,7.6-71.5,5.7-90.6c-0.1-0.9-10.1-12.1-41.2-15.5c-14-1.5-22.9-0.9-23-0.1
			C89.5,358.9,104.2,447,106,450.4C109.5,457,139.6,452.8,150.3,442.4z"/>
		
			<linearGradient id="SVGID_15_" gradientUnits="userSpaceOnUse" x1="187.3027" y1="-133.9831" x2="263.6395" y2="-18.5471" gradientTransform="matrix(0.9718 -0.2358 0.2231 0.9197 -117.5598 261.1101)">
			<stop  offset="0" style="stop-color:#EEDBD1"/>
			<stop  offset="1" style="stop-color:#D8957C"/>
		</linearGradient>
		<path class="st14" d="M208.9,202.5c2.9,18.7,3.8,34.5,1.3,44c-0.6,2.4-2.5,4.8-5.3,7.3c-21.8,19-102.2,37.9-129,34.1
			c-3.2-0.5-5.7-1.2-7.1-2.4c-9.1-7-18.3-24.5-26.7-46.4c-1.4-3.6-2.8-7.4-4.1-11.2C17.4,169.3,2.4,88.8,6.7,83.1
			c3.6-4.8,12.5-9.9,24.3-14.7c0.4-0.2,0.9-0.4,1.3-0.5c5-2,10.5-4,16.3-5.9c3.5-1.1,7.1-2.2,10.8-3.3c15.3-4.4,32.1-8.3,47.7-11
			c4-0.7,8-1.3,11.9-1.9c5.5-0.8,10.8-1.4,15.7-1.8c0,0,0.1,0,0.1,0c13.8-1.1,24.4-0.6,29.1,2.2c2.8,1.7,21.2,53.8,34.4,105.7
			C202.6,169.4,206.5,186.9,208.9,202.5z"/>
		
			<linearGradient id="SVGID_16_" gradientUnits="userSpaceOnUse" x1="188.5792" y1="-177.6069" x2="257.0055" y2="-3.0422" gradientTransform="matrix(0.9718 -0.2358 0.2231 0.9197 -117.5598 261.1101)">
			<stop  offset="0" style="stop-color:#D3A993"/>
			<stop  offset="1" style="stop-color:#C7656F"/>
		</linearGradient>
		<path class="st15" d="M208.9,202.5c-2.3-0.4-4.6-1.5-6.5-2.8c-3.7-2.4-7.3-5.5-11.8-5.8c2.4,20.5,4.9,41.6,14.3,59.9
			c-21.8,19-102.2,37.9-129,34.1c-3.6-17.7-8.6-35.2-15-52.1c-1.2-3.3-4-7.3-7.5-6.1c-1.7,0.6-2.7,2.2-3.8,3.5
			c-2,2.5-4.6,4.6-7.6,5.9c-1.4-3.6-2.8-7.4-4.1-11.2c-1.4-11.9-3.5-24.2-7.9-34.8c-5.4-13-7.4-26.3-3.5-40.2
			c1.8-6.4,7.7-13.9,10.5-19.9c2-4.3,1.4-10.2-3.2-13.2c-9.2-6.1-12-17.5-11.7-28.3c0.2-7.2,5.8-10.4,7.8-17.3
			c0.6-1.9,0.9-3.9,1.1-5.8c0.4-0.2,0.9-0.4,1.3-0.5c5-2,10.5-4,16.3-5.9c3.5-1.1,7.1-2.2,10.8-3.3c15.3-4.4,32.1-8.3,47.7-11
			c4-0.7,8-1.3,11.9-1.9c5.5-0.8,10.8-1.4,15.7-1.8c0,0,0.1,0,0.1,0c0.3,0.1,0.6,0.1,0.8,0.3c8.2,9,15,9.9,17.4,18
			c3.7,12.5,4.1,19,0.8,25.7c-1.1,2.2-7,13.1,0.3,19.6c5.3,4.7,13.9,1.4,20.9,3.1c2.5,0.6,4.6,1.6,6.4,3
			c9.5,7.1,10.8,23.1,14.5,33.1c0.6,1.7,1.4,3.4,2.1,5.1C202.6,169.4,206.5,186.9,208.9,202.5z"/>
		
			<linearGradient id="SVGID_17_" gradientUnits="userSpaceOnUse" x1="225.9542" y1="203.7977" x2="225.9542" y2="251.0079" gradientTransform="matrix(0.9736 -0.2282 0.2282 0.9736 -139.0826 83.1049)">
			<stop  offset="0" style="stop-color:#C79CC7"/>
			<stop  offset="1" style="stop-color:#FFC1BB"/>
		</linearGradient>
		<path class="st16" d="M185.8,219.9c-0.4-0.5-0.8-0.9-1.3-1.3c-3-2.4-7.3-2.1-10.9-1.8c-8.3,0.6-16.5,2.4-24.6,4.2
			c-7.5,1.6-15,3.3-22.4,5.4c-7.6,1.2-15.1,2.7-22.6,4.3c-8.2,1.7-16.3,3.5-24.2,6.3c-4.3,1.6-7.9,3.6-9.5,8.2
			c-0.6,1.9-0.5,4.2,0.8,5.8c0.9,1.1,2.4,1.8,2.8,3.1c0.3,1-0.2,2.2,0,3.2c0.3,1.9,2.5,2.9,3.5,4.6c1.1,1.8,0.6,4.3,1.7,6.1
			c0.8,1.3,2.3,2.1,3.2,3.4c1.7,2.2,1.2,5.3,1.3,8.1c0.1,6,3.2,12.1,7.9,15.9c-3.3,3.2,104.3-21.3,100-22.8
			c1.9-3.8-0.4-7.3-0.3-11.3c0.1-3.4,1.2-7.4-0.9-10.5c-0.5-0.7-1.1-1.2-1.5-1.9c-1.2-2.2-0.4-4.9-0.5-7.3c-0.2-3-1.9-5.9-1.6-8.9
			c0.2-1.6,0.9-3,1.2-4.6C188.6,225.2,187.6,222.1,185.8,219.9z"/>
		
			<linearGradient id="SVGID_18_" gradientUnits="userSpaceOnUse" x1="144.9251" y1="156.4261" x2="303.4899" y2="156.4261" gradientTransform="matrix(0.9775 -0.211 0.211 0.9775 -133.7583 86.1703)">
			<stop  offset="0" style="stop-color:#FFFFFF"/>
			<stop  offset="1" style="stop-color:#FFC1BB"/>
		</linearGradient>
		<path class="st17" d="M185.8,133.3c-3.4-8.1-10-10.8-14.5-11.6c-6.1-1-24.8-0.8-24.8-0.8s0,0,0,0c-0.4,0.4-10.3,10.3-20.1,16.9
			c-4.9,3.3-11,5.4-16.1,6.8l-0.3-0.2c0,0-0.6,0.2-1.7,0.5c-1.1,0.2-1.8,0.2-1.8,0.2l-0.2,0.3c-5.2,0.8-11.7,1.4-17.4,0.4
			c-3.1-0.5-6.3-1.3-9.3-2c0.2,1.2,0.3,2.4,0.4,3.5c-11-1.9-22.2-5.7-22.2-5.7s-16.6,8.8-21.9,11.8c0,0-3.3,4.1-3.1,12.9
			c0.3,10.5,3.8,21.6,7.6,31.3c7.2,18.3,22.5,48.1,32,56.2c7.9,6.7,21.2,8.2,24.3,7.5c5.7-1.2,22.3-15.1,32.9-17.4
			c10.2-2.2,32.2,3.3,37.1,2.3c3.1-0.7,14.6-7.5,19.1-16.9c5.4-11.3,7.1-44.7,6-64.4C191.3,154.5,189.9,143,185.8,133.3z"/>
		
			<linearGradient id="SVGID_19_" gradientUnits="userSpaceOnUse" x1="-18.0269" y1="126.4598" x2="67.227" y2="126.4598" gradientTransform="matrix(0.9915 0.1301 -0.1301 0.9915 94.0763 3.5512)">
			<stop  offset="0" style="stop-color:#FBEA77"/>
			<stop  offset="0.3946" style="stop-color:#CC5940"/>
			<stop  offset="1" style="stop-color:#680691"/>
		</linearGradient>
		<path class="st18" d="M60,136.4l-2.2,5.3c0,0,21.3,14.4,47.4,8.3c26-6.1,41.4-29.1,41.4-29.1l-5.6-4.7c0,0-12.6,17.5-37.6,23.3
			C78.3,145.3,60,136.4,60,136.4z"/>
		<path class="st19" d="M67.2,123.1c-0.1,0.6-0.7,1.1-1.3,1c-0.6-0.1-1.1-0.7-1-1.3c0.1-0.6,0.7-1.1,1.3-1
			C66.9,121.9,67.3,122.5,67.2,123.1z"/>
		
			<linearGradient id="SVGID_20_" gradientUnits="userSpaceOnUse" x1="-42.3505" y1="43.038" x2="75.1784" y2="128.2592" gradientTransform="matrix(0.9915 0.1301 -0.1301 0.9915 94.0763 3.5512)">
			<stop  offset="0" style="stop-color:#FFFFFF"/>
			<stop  offset="1" style="stop-color:#FFC1BB"/>
		</linearGradient>
		<path class="st20" d="M148.6,59.6c-0.7-1-7-2.8-9.1-3.4c-7.3-23.7-22.9-43.1-65.1-33.2C34.2,32.4,30.2,58.5,33,80.9
			c-1.1,1-6.8,6.1-7,7.4c-0.6,3.4,0,8.3,1.3,12.6c1.7,5.7,4.8,10.5,6.2,10.9c1.9,0.5,6.4,1.7,8.5,2.2c2.9,6.9,5.4,10.8,5.4,10.8
			s18.7,27.1,56.1,18.3c37.3-8.7,43.6-41.7,43.6-41.7s0.1-4.3-0.7-12.2c1.8-1.6,4.8-4.2,6.1-5.3c1.1-1,1.8-6.7,0.7-12.5
			C152.3,67,150.7,62.4,148.6,59.6z"/>
		
			<linearGradient id="SVGID_21_" gradientUnits="userSpaceOnUse" x1="30.3505" y1="127.6745" x2="-27.808" y2="16.5855" gradientTransform="matrix(0.9915 0.1301 -0.1301 0.9915 94.0763 3.5512)">
			<stop  offset="0" style="stop-color:#8352BD"/>
			<stop  offset="1" style="stop-color:#CEBCED"/>
		</linearGradient>
		<path class="st21" d="M80,40.2c-29.6,6.9-43.2,31-35.3,64.7c8.7,37,43.5,35.5,58,32.1c14.3-3.3,46.1-18.6,37.7-54.6
			C132.5,48.8,111.7,32.8,80,40.2z"/>
		<path class="st22" d="M28.1,87.3c0,0,4.8,2.4,7,9.7c2.1,6.8,0.3,13.3,0.3,13.3s0.2-6.4-2.1-13.4C31.1,89.7,28.1,87.3,28.1,87.3z"
			/>
		<path class="st23" d="M116.6,126.8c-2.8,1.5-5.6,2.7-8.1,3.7c-2.5,0.9-4.9,1.6-6.8,2.1c-1.4,0.3-3.1,0.7-4.9,0.9
			c-0.8,0.1-1.6,0.2-2.4,0.3c-1.9,0.2-3.9,0.3-5.9,0.4c-6.7,0.1-14.2-0.8-21.1-3.8c-3.8-1.7-7.5-4-10.6-7.1
			c-4.5-4.4-8.1-10.4-10-18.6c-0.3-1.4-0.6-2.8-0.8-4.1c-4.8-28.5,12-45.9,32.3-51.8c0.9-0.3,1.9-0.5,2.8-0.7c0.2,0,0.9-0.2,1.3-0.3
			c0.1,0,0.2,0,0.2-0.1c3.9-0.9,8-1.4,12-1.5c4.8,0,9.5,0.6,14.1,2c1.8,0.5,3.5,1.2,5.2,2c1.2,0.6,2.4,1.2,3.6,1.9
			c1.8,1.1,3.6,2.3,5.3,3.7c2,1.6,3.9,3.5,5.6,5.6c4.5,5.5,8.1,12.8,10.2,21.8C143.9,106,130,119.6,116.6,126.8z"/>
		
			<linearGradient id="SVGID_22_" gradientUnits="userSpaceOnUse" x1="-35.1669" y1="108.8769" x2="38.4116" y2="108.8769" gradientTransform="matrix(0.9915 0.1301 -0.1301 0.9915 94.0763 3.5512)">
			<stop  offset="0" style="stop-color:#65009A"/>
			<stop  offset="1" style="stop-color:#C1AFDE"/>
		</linearGradient>
		<path class="st24" d="M116.6,126.8c-2.8,1.5-5.6,2.7-8.1,3.7c-2.5,0.9-4.9,1.6-6.8,2.1c-1.4,0.3-3.1,0.7-4.9,0.9
			c-0.8,0.1-1.6,0.2-2.4,0.3c-1.9,0.2-3.9,0.3-5.9,0.4c-6.7,0.1-14.2-0.8-21.1-3.8c-3.8-1.7-7.5-4-10.6-7.1
			c-4.5-4.4-8.1-10.4-10-18.6c-0.3-1.4-0.6-2.8-0.8-4.1c8.9-8.3,21.3-12.7,34.3-11C99.9,92,114.7,107.8,116.6,126.8z"/>
		<path class="st25" d="M94.6,46.1l-27.2,84.2c-3.8-1.7-7.5-4-10.6-7.1l21.5-74.5c0.9-0.3,1.9-0.5,2.8-0.7c0.3-0.1,1.3-0.3,1.5-0.4
			C86.5,46.7,90.6,46.1,94.6,46.1z"/>
		<path class="st25" d="M113.8,50.1l-19.4,83.7c-1.9,0.2-3.9,0.3-5.9,0.4l20.2-86C110.4,48.6,112.1,49.3,113.8,50.1z"/>
		<path class="st25" d="M128.3,61.2l-19.7,69.2c-2.5,0.9-4.9,1.6-6.8,2.1c-1.4,0.3-3.1,0.7-4.9,0.9l20.6-81.5
			C121.4,54.3,125.1,57.3,128.3,61.2z"/>
		
			<linearGradient id="SVGID_23_" gradientUnits="userSpaceOnUse" x1="59.4095" y1="254.6741" x2="123.3413" y2="133.9606" gradientTransform="matrix(0.9949 -0.1004 0.1004 0.9949 -71.6872 22.8154)">
			<stop  offset="0" style="stop-color:#FFFFFF"/>
			<stop  offset="1" style="stop-color:#FFC1BB"/>
		</linearGradient>
		<path class="st26" d="M37.2,161c-0.2-1.9-0.3-3.8-0.1-5.7C26.5,162.8,7,236.1,8,259.3c0.1,1.8,21.9,3.4,24.6,4.1
			c9.6,2.5,11-5.5,13.7-16.1c2.8-11.4,5.7-22.8,8.5-34.2C55.4,210.6,41.3,197.3,37.2,161z"/>
		
			<linearGradient id="SVGID_24_" gradientUnits="userSpaceOnUse" x1="75.3438" y1="213.4615" x2="106.7321" y2="213.4615" gradientTransform="matrix(0.9949 -0.1004 0.1004 0.9949 -71.6872 22.8154)">
			<stop  offset="0" style="stop-color:#F5D689"/>
			<stop  offset="1" style="stop-color:#D8957C"/>
		</linearGradient>
		<path class="st27" d="M46.2,247.4c0,0-3.6-3.7-9.1-6c-6.4-2.7-11.3-3.1-11.3-3.1l9.6-33.6c0,0,6.9,0.4,11.8,2.7
			c5,2.4,7.6,5.9,7.6,5.9L46.2,247.4z"/>
		
			<linearGradient id="SVGID_25_" gradientUnits="userSpaceOnUse" x1="77.5388" y1="322.5313" x2="118.6695" y2="322.5313" gradientTransform="matrix(0.9856 -0.1691 0.1691 0.9856 -122.8391 -0.6938)">
			<stop  offset="0" style="stop-color:#FFFFFF"/>
			<stop  offset="1" style="stop-color:#FFC1BB"/>
		</linearGradient>
		<path class="st28" d="M40.6,259.8c-5.3-3.4-13.2-4.1-19.5-3.7c-4.5,0.3-13.1,1.7-13.1,2.3c-4.4,33,7.4,86.3,7.4,86.3
			c7,2.5,20.7,2.1,24.5-1.2c4.1-23.1,6-60.9,3.1-79.5c-0.1-0.8-0.3-1.7-0.7-2.4C41.9,260.9,41.3,260.3,40.6,259.8z"/>
		
			<linearGradient id="SVGID_26_" gradientUnits="userSpaceOnUse" x1="62.8437" y1="298.6966" x2="68.2173" y2="210.9267" gradientTransform="matrix(0.9991 -4.190000e-02 4.190000e-02 0.9991 -50.6932 49.8614)">
			<stop  offset="0" style="stop-color:#C79CC7"/>
			<stop  offset="1" style="stop-color:#FFC1BB"/>
		</linearGradient>
		<path class="st29" d="M43,264c-0.1-0.8-0.3-1.7-0.7-2.4c-0.4-0.7-1-1.3-1.7-1.8c-5.3-3.4-13.2-4.1-19.5-3.7
			c-4.5,0.3-13.1,1.7-13.1,2.3c-0.2,1.6-0.4,3.2-0.5,4.9c2.5-1,5.3-1.3,8-0.7c6,1.3,13.9,3.2,17.4,9c4.6,7.3,0.9,60.6-0.1,63.3
			c-1.4,3.8-16.4,7.4-17.9,7.5c0.3,1.6,0.5,2.4,0.5,2.4c7,2.5,20.7,2.1,24.5-1.2C44,320.4,45.9,282.6,43,264z"/>
		
			<linearGradient id="SVGID_27_" gradientUnits="userSpaceOnUse" x1="166.4759" y1="303.3046" x2="291.6924" y2="303.3046" gradientTransform="matrix(0.9736 -0.2282 0.2282 0.9736 -139.0826 83.1049)">
			<stop  offset="0" style="stop-color:#C79CC7"/>
			<stop  offset="1" style="stop-color:#FFC1BB"/>
		</linearGradient>
		<path class="st30" d="M90,315.8c0.4,7.6,0.8,14.9,2,23.6c34.3-4.9,64,12.4,64,12.4l6.1-1.4c0,0,18.9-28.6,51.8-39.5
			c-2.9-8.9-6-15.9-9.2-23.2C166.4,296.7,128.3,306.7,90,315.8z"/>
		
			<linearGradient id="SVGID_28_" gradientUnits="userSpaceOnUse" x1="53.2241" y1="324.0023" x2="81.9683" y2="324.0023" gradientTransform="matrix(0.9991 -4.190000e-02 4.190000e-02 0.9991 -50.6932 49.8614)">
			<stop  offset="0" style="stop-color:#FFFFFF"/>
			<stop  offset="1" style="stop-color:#FFC1BB"/>
		</linearGradient>
		<path class="st31" d="M42,355.4c-1.2-3.4-3-6.6-3.4-10.2c-6.9,0.6-13.7,2-20.3,4c-0.3,0.1-0.6,0.2-0.8,0.5
			c-0.1,0.2-0.2,0.4-0.2,0.6c-0.7,6-1.1,12.1-1.3,18.2c0,1.3-0.1,2.6,0.2,3.9c0.2,1.2,0.7,2.3,1.2,3.4c2.4,5.5,5.2,10.7,8.3,15.8
			c0.3,0.4,0.5,0.8,0.9,1.2c0.5,0.5,1.2,0.9,1.8,1.2c2.4,1.3,4.8,1.2,7.4,1.8c0.2-2.6-1.7-4.7-2.8-7c-1.7-3.2-1.9-7.1-2.1-10.7
			c-0.1-2.1,0.4-10.6,3.9-6.5c1.8,2.2,1.3,6.6,1.2,9.3c0,1.3-0.5,3.3-0.1,4.6c0.2,0.6,3.6,4.6,4.1,2.9c1.3-4.1,2.4-8.2,3.6-12.3
			c0.5-1.7,0.9-3.5,1-5.3c0.1-1.6-0.2-3.2-0.4-4.9C43.8,362.3,43.2,358.7,42,355.4z"/>
		
			<linearGradient id="SVGID_29_" gradientUnits="userSpaceOnUse" x1="52.9428" y1="301.3495" x2="79.3519" y2="301.3495" gradientTransform="matrix(0.9991 -4.190000e-02 4.190000e-02 0.9991 -50.6932 49.8614)">
			<stop  offset="0.4559" style="stop-color:#CC5940"/>
			<stop  offset="1" style="stop-color:#680691"/>
		</linearGradient>
		<path class="st32" d="M15.4,344.7c0,0,4.4,1.1,11.9,0.8c8.3-0.4,12.6-2,12.6-2s2.7,4.7,0.3,6.3c-1.2,0.8-6.8,2.4-12.6,2.6
			c-6,0.2-11.5-0.9-12.1-1.5C14.1,349.5,15.4,344.7,15.4,344.7z"/>
		
			<linearGradient id="SVGID_30_" gradientUnits="userSpaceOnUse" x1="-1227.3152" y1="264.8503" x2="-1154.6171" y2="127.5846" gradientTransform="matrix(-0.9048 0.4259 0.4259 0.9048 -955.7027 499.6859)">
			<stop  offset="0" style="stop-color:#FFFFFF"/>
			<stop  offset="1" style="stop-color:#FFC1BB"/>
		</linearGradient>
		<path class="st33" d="M174.4,121.9c14.1,3,60.9,40.6,72.1,61c0.9,1.6,11.4,32.1,9.5,34.1c-6.9,7.1-22.1,3.4-48.6-16.6
			c-9.4-7.1-13.5-9.9-21.8-18.2C183.7,180.4,175.5,123.5,174.4,121.9z"/>
		
			<linearGradient id="SVGID_31_" gradientUnits="userSpaceOnUse" x1="-41.1366" y1="179.4226" x2="-91.48" y2="96.8742" gradientTransform="matrix(0.9789 0.1768 -0.1986 0.9414 119.0287 51.6986)">
			<stop  offset="0.3946" style="stop-color:#A23F48"/>
			<stop  offset="1" style="stop-color:#680691"/>
		</linearGradient>
		<path class="st34" d="M38.9,149.8c0,0,11.3,11.9,11.6,18.9c0.3,7-12.6,35.3-17.2,35.4c-4.6,0.1-19.7-1.7-19.6-2.6
			s2.7-29.1,9.2-41.1C27.3,152.3,38.9,149.8,38.9,149.8z"/>
		
			<linearGradient id="SVGID_32_" gradientUnits="userSpaceOnUse" x1="-46.777" y1="160.0498" x2="-83.7936" y2="128.2156" gradientTransform="matrix(0.9789 0.1768 -0.1986 0.9414 119.0287 51.6986)">
			<stop  offset="0.4559" style="stop-color:#CC5940"/>
			<stop  offset="1" style="stop-color:#680691"/>
		</linearGradient>
		<path class="st35" d="M38.9,149.8c0,0,8.3,11.3,8.6,18c0.3,6.7-12.1,33.8-16.5,34c-4.4,0.1-17.3,0.6-17.2-0.3
			c0.1-0.9,1.1-30.1,7.3-41.7C25.2,152,38.9,149.8,38.9,149.8z"/>
		
			<linearGradient id="SVGID_33_" gradientUnits="userSpaceOnUse" x1="-1180.2045" y1="743.7096" x2="-1230.5459" y2="661.1646" gradientTransform="matrix(-0.7046 0.7021 0.6988 0.6614 -1149.2004 511.746)">
			<stop  offset="0.3946" style="stop-color:#A23F48"/>
			<stop  offset="1" style="stop-color:#680691"/>
		</linearGradient>
		<path class="st36" d="M169.4,120.4c0,0-2.5,16.2,1.2,22.2c3.7,5.9,30.5,21.8,34.3,19.3c3.8-2.5,15.2-12.6,14.6-13.3
			c-0.6-0.7-18.8-22.3-30.9-28.6C180.4,115.8,169.4,120.4,169.4,120.4z"/>
		
			<linearGradient id="SVGID_34_" gradientUnits="userSpaceOnUse" x1="-1185.8448" y1="724.3375" x2="-1222.8607" y2="692.5039" gradientTransform="matrix(-0.7046 0.7021 0.6988 0.6614 -1149.2004 511.746)">
			<stop  offset="0.4559" style="stop-color:#CC5940"/>
			<stop  offset="1" style="stop-color:#680691"/>
		</linearGradient>
		<path class="st37" d="M169.4,120.4c0,0-0.4,14,3.2,19.7s29.2,20.9,32.9,18.5c3.7-2.4,14.6-9.4,14-10c-0.6-0.7-18-24.2-29.7-30.1
			C182,114.4,169.4,120.4,169.4,120.4z"/>
		
			<linearGradient id="SVGID_35_" gradientUnits="userSpaceOnUse" x1="133.5064" y1="569.7686" x2="142.3904" y2="434.2874" gradientTransform="matrix(0.9879 -0.1548 0.1548 0.9879 -74.9943 45.3299)">
			<stop  offset="0" style="stop-color:#C788C7"/>
			<stop  offset="1" style="stop-color:#FFB3B1"/>
		</linearGradient>
		<path class="st38" d="M157.4,493.7c2.4,26.5-6.5,88.6-6.5,88.6s-4.2,3.4-12.7,4.7c-6,0.9-13.2-0.3-13.2-0.3l-1.5-8.9
			c3.3-0.5,12.8-2.1,17.2-4.1c5.3-2.4,5.4-20.9,5.8-45.5c0.4-24.5-1.2-46.3-4.7-50.8c-3.5-4.5-15.1-4.4-15.1-4.4l-1.1-15.6l25.8-8.3
			C151.3,449.2,154.8,465.8,157.4,493.7z"/>
		
			<linearGradient id="SVGID_36_" gradientUnits="userSpaceOnUse" x1="171.2656" y1="258.8516" x2="283.7907" y2="258.8516" gradientTransform="matrix(0.9736 -0.2282 0.2282 0.9736 -139.0826 83.1049)">
			<stop  offset="0.4559" style="stop-color:#CC5940"/>
			<stop  offset="1" style="stop-color:#680691"/>
		</linearGradient>
		<path class="st39" d="M192.1,267.2c0,0-20.6,3.8-28.7,0.9c-0.1-0.1-0.3-0.1-0.4-0.2c-5.6-9.1-15.4-14.2-28.1-11.3
			c-12,2.8-19.1,11.9-20.1,22.6c-0.1,0.1-0.2,0.2-0.3,0.4c-6,6.2-26.6,12.1-26.6,12.1s-0.6,11.2,2.6,18.2c2.3,5,34.3,5.4,57.5,0
			c24.2-5.7,52-20.1,51.5-25.5C198.9,278.3,192.1,267.2,192.1,267.2z"/>
		
			<linearGradient id="SVGID_37_" gradientUnits="userSpaceOnUse" x1="169.3355" y1="278.9616" x2="284.6081" y2="278.9616" gradientTransform="matrix(0.9736 -0.2282 0.2282 0.9736 -139.0826 83.1049)">
			<stop  offset="0.4559" style="stop-color:#9C1D3B"/>
			<stop  offset="1" style="stop-color:#270668"/>
		</linearGradient>
		<path class="st40" d="M145,300.7c-19.8,4.6-42,5.7-53.5,5.1c-2.3-0.1-4.1,2.1-3.4,4.4c0.3,0.9,0.6,1.7,0.9,2.5
			c2.3,5,35.1,5.3,58.9-0.3c24.8-5.8,53.4-20.4,52.9-25.9c-0.1-1.2-0.5-2.5-0.9-4c-0.4-1-1.5-1.5-2.5-1
			C190.7,284.7,170,294.8,145,300.7z"/>
		
			<linearGradient id="SVGID_38_" gradientUnits="userSpaceOnUse" x1="209.8829" y1="296.3844" x2="178.3749" y2="273.0771" gradientTransform="matrix(0.9736 -0.2282 0.2282 0.9736 -139.0826 83.1049)">
			<stop  offset="0" style="stop-color:#FFFFFF"/>
			<stop  offset="1" style="stop-color:#FFC1BB"/>
		</linearGradient>
		<polygon class="st41" points="120.7,317.7 103.7,324.3 100.2,309.2 117.5,304.1 		"/>
		
			<linearGradient id="SVGID_39_" gradientUnits="userSpaceOnUse" x1="209.8479" y1="293.5652" x2="162.974" y2="258.8913" gradientTransform="matrix(0.9736 -0.2282 0.2282 0.9736 -139.0826 83.1049)">
			<stop  offset="0" style="stop-color:#FFFFFF"/>
			<stop  offset="1" style="stop-color:#FFC1BB"/>
		</linearGradient>
		<polygon class="st42" points="100.2,309.2 79.5,309 90.6,305.5 117.5,304.1 		"/>
		
			<linearGradient id="SVGID_40_" gradientUnits="userSpaceOnUse" x1="196.9831" y1="298.3154" x2="156.7291" y2="268.5384" gradientTransform="matrix(0.9736 -0.2282 0.2282 0.9736 -139.0826 83.1049)">
			<stop  offset="0" style="stop-color:#C79CC7"/>
			<stop  offset="1" style="stop-color:#FFC1BB"/>
		</linearGradient>
		<polygon class="st43" points="100.2,309.2 103.7,324.3 82.7,322.7 79.5,309 		"/>
		
			<linearGradient id="SVGID_41_" gradientUnits="userSpaceOnUse" x1="-858.3764" y1="295.1072" x2="-889.8843" y2="271.8" gradientTransform="matrix(-0.9736 0.2282 0.2282 0.9736 -736.0443 223.6824)">
			<stop  offset="0" style="stop-color:#FFFFFF"/>
			<stop  offset="1" style="stop-color:#FFC1BB"/>
		</linearGradient>
		<polygon class="st44" points="175.2,304.3 193.4,302.6 189.8,287.6 172,290.6 		"/>
		
			<linearGradient id="SVGID_42_" gradientUnits="userSpaceOnUse" x1="-858.4137" y1="292.2878" x2="-905.2852" y2="257.6157" gradientTransform="matrix(-0.9736 0.2282 0.2282 0.9736 -736.0443 223.6824)">
			<stop  offset="0" style="stop-color:#FFFFFF"/>
			<stop  offset="1" style="stop-color:#FFC1BB"/>
		</linearGradient>
		<polygon class="st45" points="189.8,287.6 208.3,278.1 196.8,280 172,290.6 		"/>
		
			<linearGradient id="SVGID_43_" gradientUnits="userSpaceOnUse" x1="-871.2759" y1="297.0402" x2="-911.5306" y2="267.2628" gradientTransform="matrix(-0.9736 0.2282 0.2282 0.9736 -736.0443 223.6824)">
			<stop  offset="0" style="stop-color:#C79CC7"/>
			<stop  offset="1" style="stop-color:#FFC1BB"/>
		</linearGradient>
		<polygon class="st46" points="189.8,287.6 193.4,302.6 211.5,291.8 208.3,278.1 		"/>
		
			<linearGradient id="SVGID_44_" gradientUnits="userSpaceOnUse" x1="246.4051" y1="297.574" x2="214.0631" y2="273.6497" gradientTransform="matrix(0.9736 -0.2282 0.2282 0.9736 -139.0826 83.1049)">
			<stop  offset="0" style="stop-color:#FFFFFF"/>
			<stop  offset="1" style="stop-color:#FFC1BB"/>
		</linearGradient>
		<polygon class="st47" points="155.4,312.2 139,316 135.5,301 151.9,297.1 		"/>
		
			<linearGradient id="SVGID_45_" gradientUnits="userSpaceOnUse" x1="153.552" y1="425.3194" x2="123.6624" y2="425.9185" gradientTransform="matrix(0.9907 -0.1363 0.1363 0.9907 -53.1634 48.6337)">
			<stop  offset="0" style="stop-color:#D3A993"/>
			<stop  offset="1" style="stop-color:#C7656F"/>
		</linearGradient>
		<path class="st48" d="M152.8,456.1c-1.2,2.1-6.6,3.5-12.5,11.3c0.7-5.3,0.9-10.8,0.2-16.1c-0.4-2.6-2.9-13.4-4.1-14.7
			c6.3,3.9,13.9,3.5,15.3,2.7C153.3,443.7,153.7,454.4,152.8,456.1z"/>
		
			<linearGradient id="SVGID_46_" gradientUnits="userSpaceOnUse" x1="100.7777" y1="424.8704" x2="121.4041" y2="424.8704" gradientTransform="matrix(0.9907 -0.1363 0.1363 0.9907 -53.1634 48.6337)">
			<stop  offset="0" style="stop-color:#D3A993"/>
			<stop  offset="1" style="stop-color:#C7656F"/>
		</linearGradient>
		<path class="st49" d="M106.5,464c0.2,0.3,0.6,0.2,1,0.3c2.9,0.8,5.6,3.5,8.1,4.8c1.2-8.3-3.2-20.8-3-29.2c-1.3,2-4.4,5.2-6.6,6.7
			c-0.4,0.3-1.7,0.6-1.8,1.1C103.7,450,105.3,462.6,106.5,464z"/>
		
			<linearGradient id="SVGID_47_" gradientUnits="userSpaceOnUse" x1="113.7215" y1="403.0861" x2="124.9434" y2="431.4311" gradientTransform="matrix(0.9907 -0.1363 0.1363 0.9907 -53.1634 48.6337)">
			<stop  offset="0" style="stop-color:#D3A993"/>
			<stop  offset="1" style="stop-color:#C7656F"/>
		</linearGradient>
		<path class="st50" d="M144.2,450.9c1.6,12-5,22.8-15,24.2c-9.9,1.4-19.3-7.2-20.9-19.2c-1.6-12,5-22.8,15-24.2
			C133.2,430.3,142.5,438.9,144.2,450.9z"/>
		
			<linearGradient id="SVGID_48_" gradientUnits="userSpaceOnUse" x1="112.2173" y1="403.6667" x2="124.2275" y2="423.8902" gradientTransform="matrix(0.9907 -0.1363 0.1363 0.9907 -53.1634 48.6337)">
			<stop  offset="0" style="stop-color:#D3957A"/>
			<stop  offset="1" style="stop-color:#BA5160"/>
		</linearGradient>
		<path class="st51" d="M124,435.1c0,0,15.6,0.8,16.7,16.9c1.2,17.8-13.7,20.4-13.7,20.4s7.7-6.3,7.5-17.4
			C134.3,439.5,124,435.1,124,435.1z"/>
		
			<linearGradient id="SVGID_49_" gradientUnits="userSpaceOnUse" x1="309.8777" y1="177.6166" x2="343.4967" y2="177.6166" gradientTransform="matrix(0.9736 -0.2282 0.2282 0.9736 -139.0826 83.1049)">
			<stop  offset="0" style="stop-color:#F5D689"/>
			<stop  offset="1" style="stop-color:#D8957C"/>
		</linearGradient>
		<path class="st52" d="M214.2,161.5c0.8-0.2,15.9,12,22,17.5c-3.8,6.5-5.7,14-6.6,21.4c-8.7-6.1-27.7-19.4-27.6-20.2
			C202.2,174.9,211.2,162.2,214.2,161.5z"/>
		
			<linearGradient id="SVGID_50_" gradientUnits="userSpaceOnUse" x1="-1021.2439" y1="911.8302" x2="-980.1165" y2="911.8302" gradientTransform="matrix(0.9342 0.3568 0.3568 -0.9342 864.1995 1380.2131)">
			<stop  offset="0" style="stop-color:#FFFFFF"/>
			<stop  offset="1" style="stop-color:#FFC1BB"/>
		</linearGradient>
		<path class="st53" d="M258.8,213.7c-5.8,2.3-13.7,1.4-19.8-0.1c-4.4-1.1-12.5-4.2-12.4-4.8c2.1-33.2,24-83.2,24-83.2
			c7.3-1.1,20.7,1.9,23.8,6c-0.4,23.4-5.9,60.9-12.4,78.6c-0.3,0.8-0.6,1.6-1.1,2.2C260.2,212.9,259.5,213.4,258.8,213.7z"/>
		
			<linearGradient id="SVGID_51_" gradientUnits="userSpaceOnUse" x1="-951.2338" y1="1023.1724" x2="-945.4304" y2="928.3824" gradientTransform="matrix(0.9721 0.2346 0.2346 -0.9721 944.685 1344.3)">
			<stop  offset="0" style="stop-color:#C79CC7"/>
			<stop  offset="1" style="stop-color:#FFC1BB"/>
		</linearGradient>
		<path class="st54" d="M261.4,213.2c-5.6,7.7-16.5,9.7-22.5,7.7c-6.8-2.3-11.4-7.8-12.4-12.1c-0.4-1.6-0.1-4.1,0.8-7.8
			c6.3,9.4,22.7,7.5,27,1.1c4.8-7.2,11.9-60.5,11.4-63.4c-0.7-4-14.7-10.5-16.1-10.8c0.6-1.5,1-2.3,1-2.3c7.3-1.1,20.7,1.9,23.8,6
			C275.3,169.1,263.9,209.8,261.4,213.2z"/>
		
			<linearGradient id="SVGID_52_" gradientUnits="userSpaceOnUse" x1="-954.4102" y1="1021.1524" x2="-928.8723" y2="1021.1524" gradientTransform="matrix(0.9819 0.1892 0.1892 -0.9819 994.4475 1305.9572)">
			<stop  offset="0.4559" style="stop-color:#CC5940"/>
			<stop  offset="1" style="stop-color:#680691"/>
		</linearGradient>
		<path class="st55" d="M250.1,126.5c0,0,4.7-0.4,12,1c8.1,1.6,12.2,4.3,12.2,4.3s2.3-5.2,0.8-6.6c-1-1-6-3.3-11.7-4.4
			c-5.9-1.1-11-0.9-11.7-0.4C250.1,121.6,250.1,126.5,250.1,126.5z"/>
		
			<linearGradient id="SVGID_53_" gradientUnits="userSpaceOnUse" x1="380.3468" y1="114.1684" x2="393.2789" y2="114.1684" gradientTransform="matrix(0.9736 -0.2282 0.2282 0.9736 -139.0826 83.1049)">
			<stop  offset="0" style="stop-color:#C79CC7"/>
			<stop  offset="1" style="stop-color:#FFC1BB"/>
		</linearGradient>
		<path class="st56" d="M266.3,101.5c-0.4-0.2-0.8-0.5-1.2-0.7c-1.5-0.8-3.1-1.6-4.9-1.9c-1.1-0.2-2.1-0.1-3.2,0
			c-0.6,0-1.3,0.2-1.5,0.8c-0.1,0.5,0.3,0.9,0.7,1.2c1.4,1.1,3.1,1.7,4.3,3c1.5,1.7,1.8,4,2.3,6.2c0.2,1,0.5,2.1,1.2,2.8
			c1.5,1.6,5,1,6.1-0.8c0.4-0.6,0.6-1.4,0.6-2.1c0.3-2.5-1.2-5.7-3-7.4C267.3,102.2,266.8,101.8,266.3,101.5z"/>
	</g>
	<path class="st57" d="M164.8,50.9c-2.1-8.3-9.3-13.7-16.7-13.1c-1.5-1.7-3.9-2.7-6.6-2.6c-3.1-7.8-7.9-15.5-15.7-21.4
		c-13.3-10-31.9-12.1-55.1-6.2c-23.3,5.9-38.6,16.6-45.5,31.7c-4,8.8-4.6,18-3.6,26.3c-2.4,1.3-4,3.3-4.5,5.5
		c-6.8,3-10.5,11.2-8.4,19.5c2,8.1,8.9,13.4,16.2,13.1c1.6,3.1,5.8,4.7,10.1,3.6l0.2,0c1.5-0.4,2.8-1.1,3.9-1.9l-10-39.6
		c-1-7.6-0.6-16,3-23.9c6-13,19.6-22.3,40.4-27.6c20.8-5.3,37.2-3.6,48.7,5c7,5.2,11.3,12.4,14,19.6l10,39.6
		c0.8,0.1,1.6,0.1,2.5,0.1c-0.5,8.9-5.6,24.9-33.7,34c-1-0.7-2.4-1.1-3.9-0.7l-15.4,3.9c-2.3,0.6-3.9,2.6-3.4,4.5l0,0.1
		c0.5,1.9,2.8,2.9,5.1,2.3l15.4-3.9c1.8-0.5,3.1-1.8,3.4-3.2c30.6-10.1,35.8-28.3,36.3-38c3.3-1.5,5.4-4.4,5.3-7.4
		C163.3,67,166.8,59,164.8,50.9z"/>
</g>
</svg>
