<?xml version="1.0" encoding="utf-8"?>
<!-- Generator: Adobe Illustrator 25.2.1, SVG Export Plug-In . SVG Version: 6.00 Build 0)  -->
<svg version="1.1" id="Ebene_1" xmlns="http://www.w3.org/2000/svg" xmlns:xlink="http://www.w3.org/1999/xlink" x="0px" y="0px"
	 viewBox="0 0 982 693" style="enable-background:new 0 0 982 693;" xml:space="preserve">
<style type="text/css">
	.st0{fill:none;stroke:#FFFFFF;stroke-width:2;stroke-miterlimit:10;}
	.st1{fill:url(#SVGID_1_);}
	.st2{fill:url(#SVGID_2_);}
	.st3{fill:url(#SVGID_3_);}
	.st4{fill:url(#SVGID_4_);}
	.st5{opacity:0.44;fill:url(#SVGID_5_);}
	.st6{fill:url(#SVGID_6_);}
	.st7{fill:url(#SVGID_7_);}
	.st8{fill:url(#SVGID_8_);}
	.st9{fill:url(#SVGID_9_);}
	.st10{fill:url(#SVGID_10_);}
	.st11{fill:url(#SVGID_11_);}
	.st12{opacity:0.48;fill:#7B8CB7;}
	.st13{fill:url(#SVGID_12_);}
	.st14{fill:url(#SVGID_13_);}
	.st15{filter:url(#Adobe_OpacityMaskFilter);}
	.st16{filter:url(#Adobe_OpacityMaskFilter_1_);}
	.st17{mask:url(#SVGID_14_);fill:url(#SVGID_15_);}
	.st18{fill:url(#SVGID_16_);}
	.st19{fill:url(#SVGID_17_);}
	.st20{fill:url(#SVGID_18_);}
	.st21{fill:url(#SVGID_19_);}
	.st22{fill:url(#SVGID_20_);}
	.st23{fill:url(#SVGID_21_);}
</style>
<path class="st0" d="M653.5,175.5c-34.9-12.8-76.2-2.2-103.4,23.3s-40.7,64.1-39.3,101.5c0.5,14.2,3.1,28.4,8.6,41.5
	c24.8,59.4,100.6,82,130.1,139.1c22.1,42.8,12.1,97.9-17.7,135.6c-29.8,37.7-76.4,59.3-123.7,66.6c-9.7,1.5-20,2.3-28.7-2.1
	c-8.2-4.2-13.8-12.7-22.3-16.5c-6.8-3.1-14.5-2.7-21.9-3.3c-22-1.8-42.1-12.3-63-19.4c-59-19.9-123.8-12.4-183.7,4.5
	c-24.6,7-48.9,15.5-74.1,19.6c-37.8,6.2-76.4,2.4-114.5-1.5"/>
<g>
	
		<linearGradient id="SVGID_1_" gradientUnits="userSpaceOnUse" x1="2129.2048" y1="-222.6304" x2="2043.5021" y2="-261.7191" gradientTransform="matrix(-0.9979 -6.552361e-02 -6.552361e-02 0.9979 2970.0652 828.8131)">
		<stop  offset="5.747130e-02" style="stop-color:#ECEBFF"/>
		<stop  offset="0.9962" style="stop-color:#FFFFFF"/>
	</linearGradient>
	<path class="st1" d="M945.3,430.1c0,0,2.8,8.4,2.8,8.4c0.1,0.2-6.8,3-7.5,2.8c-1-0.2-1.7-1.2-2.4-2c-1.3-1.4-3.9-0.8-3.7,1.4
		c0.1,0.9,0.4,1.8,0.1,2.7c-0.5,1.7-3.1,2.8-4.8,2.4c-0.9-0.2-1.1-1-1.9-1.5c-1.1-0.8-2.9-1.1-3.9,0c-1,1.2-0.5,3-1.1,4.4
		c-0.8,1.8-3.4,2.2-5,1c-1-0.7-1.6-1.8-2.6-2.5c-1.9-1.2-4.9-0.1-5.5,2.2c-0.3,1.2,0,2.6-0.4,3.8c-0.6,1.6-2.9,2.2-4.2,1.2
		c-1.5-1.1-2.5-3.2-4.6-2.5c-2.8,0.9-1.1,4.1-2.9,5.6c-1.3,1.1-3.1,0.9-3.9-0.4c-1-1.6-3.8-2-4.9-0.3c-0.8,1.3-0.2,3.2-1.4,4.2
		c-0.7,0.5-7.5,2.4-7.5,2.4l-2.8-8.8L945.3,430.1z"/>
	
		<linearGradient id="SVGID_2_" gradientUnits="userSpaceOnUse" x1="2063.0759" y1="-284.8101" x2="2118.7625" y2="-241.9264" gradientTransform="matrix(-0.9979 -6.552361e-02 -6.552361e-02 0.9979 2970.0652 828.8131)">
		<stop  offset="5.747130e-02" style="stop-color:#A08BF0"/>
		<stop  offset="0.977" style="stop-color:#5754FE"/>
	</linearGradient>
	<path class="st2" d="M903.7,410c0,0,2.6,5.3,16,1c18.9-6,25.6,19.1,25.6,19.1s-20.9,10.4-32.1,14.6c-11.3,4.1-36.1,9.9-36.1,9.9
		s-4.8-10.1-6.6-20c-1.8-9.9-1.9-14.7-1.9-14.7L903.7,410z"/>
	
		<linearGradient id="SVGID_3_" gradientUnits="userSpaceOnUse" x1="2151.032" y1="-393.9945" x2="2205.8584" y2="-306.0269" gradientTransform="matrix(-0.9979 -6.552361e-02 -6.552361e-02 0.9979 2970.0652 828.8131)">
		<stop  offset="5.747130e-02" style="stop-color:#DBCFFF"/>
		<stop  offset="0.9962" style="stop-color:#FFFFFF"/>
	</linearGradient>
	<path class="st3" d="M726.5,275.1c5.8,9.5,28.4,24.6,49.7,33c4.7,1.9,11.3,2.5,15.2,5.7c1.1,0.9,1.9,2.1,3.1,2.8
		c2.1,1.1,4.8,0.4,7,1.3c2.8,1.2,3.8,4.7,4.9,7.5c1,2.4,3.1,5.1,5.9,5c2.3-0.1,4.1-2,6.4,0.3c1.5,1.5,1.2,3.9,1,6
		c-0.2,2.1-0.2,4.6,1.6,5.7c2,1.3,4.6-0.2,7,0.1c0.7,0.1,1.4,0.4,1.8,1c2.5,4-4.6,10.3,1.1,13.8c0.9,0.5,1.9,0.8,2.8,1.3
		c0.9,0.6,1.5,1.7,1.1,2.6c-0.2,0.5-0.7,0.8-1,1.3c-0.6,1.2,0.7,2.4,1.4,3.6c1.1,1.8,0.9,4.1,1.8,6c1,2.3,3.2,3.8,5.2,5.4
		c1.7,1.4,3.2,2.8,3.6,4.9c0.3,1.7-0.2,3.4-0.2,5.2c0,0.1,0,0.3,0,0.4c0.4,5.1,7,4.1,8.8,8.1c0.5,1.1,0.4,2.4,0.6,3.6
		c0.6,3.4,4.1,6,7.5,5.6c-1.2,7.9,0.2,16.9,6.2,20c2.9,1.5,17.1-0.8,27.3-5c5.2-2.2,9.4-4.8,10.5-7.8c1.4-3.5-3.8-19.5-13.8-43.5
		c-1.4-3.4-2.9-6.9-4.3-10.3c-9.5-22.7-18.9-44-20.1-48.1c-2.8-9.1-59.5-52-59.5-52s-30.4-1.6-54.6,0.9
		C735.8,261.3,720.8,265.7,726.5,275.1z"/>
	<g>
		
			<linearGradient id="SVGID_4_" gradientUnits="userSpaceOnUse" x1="2149.6926" y1="-303.2465" x2="2110.6685" y2="-326.495" gradientTransform="matrix(-0.9979 -6.552361e-02 -6.552361e-02 0.9979 2970.0652 828.8131)">
			<stop  offset="5.747130e-02" style="stop-color:#A08BF0"/>
			<stop  offset="0.977" style="stop-color:#5754FE"/>
		</linearGradient>
		<path class="st4" d="M842.4,377.5c1.7,1.4,3.2,2.8,3.6,4.9c0.3,1.7-0.2,3.4-0.2,5.2c0,0.1,0,0.3,0,0.4c7.7-1.4,19.4-4.2,31.5-10.1
			c6-2.9,11.2-6,15.7-8.9c-1.4-3.4-2.9-6.9-4.3-10.3c-4.5,3-10,6.3-16.2,9.4C860.8,373.8,849.2,376.4,842.4,377.5z"/>
	</g>
	
		<linearGradient id="SVGID_5_" gradientUnits="userSpaceOnUse" x1="2085.9294" y1="-349.5711" x2="2264.5874" y2="-349.5711" gradientTransform="matrix(-0.9979 -6.552361e-02 -6.552361e-02 0.9979 2970.0652 828.8131)">
		<stop  offset="5.747130e-02" style="stop-color:#A08BF0"/>
		<stop  offset="0.977" style="stop-color:#5754FE"/>
	</linearGradient>
	<path class="st5" d="M738.3,279.2c1.8,2.9,4.9,4.8,7.9,6.4c9.7,5.2,20.1,9.2,30.8,11.8c5.2,1.3,10.5,1.9,15.8,2.8
		c10.5,1.8,23.8-1.2,33,5.8c1.8,1.4,4,3.3,6.1,2.5c1.2-0.5,1.9-1.7,2.7-2.6c0.8-1,2.2-1.8,3.3-1.1c1.2,1,0.4,3.4,1.8,4.3
		c0.5,0.3,1.1,0.3,1.7,0.5c2.5,0.6,3.6,3.6,3.6,6.2c0,1.2-0.1,2.3,0.1,3.5c1.6,6.6,11.5,5.5,12.1,12.1c0.2,2.5-1.1,4.9-1.7,7.3
		c-1.4,5,0.4,10.8,4.3,14.3c1.3,1.1,2.7,2,3.7,3.4c3.1,4.4-0.1,10.7,1.6,15.8c1.9,5.6,9,7.9,11.4,13.3c0.7,1.6,0.9,3.3,1.6,4.9
		c1.1,2.6,3.3,4.5,4.8,6.9c3.6,5.6,3,13,6.3,18.8c0.9,1.6,2.2,3.2,4,3.8c1,0.4,2,0.5,3.1,0.4c5.2-2.2,9.4-4.8,10.5-7.8
		c1.4-3.5-3.8-19.5-13.8-43.5c-1.4-3.4-2.9-6.9-4.3-10.3c-9.5-22.7-18.9-44-20.1-48.1c-2.8-9.1-59.5-52-59.5-52s-30.4-1.6-54.6,0.9
		C743.1,264.3,733.3,271.2,738.3,279.2z"/>
	
		<linearGradient id="SVGID_6_" gradientUnits="userSpaceOnUse" x1="2114.5051" y1="-276.6056" x2="2028.8024" y2="-315.6942" gradientTransform="matrix(-0.9979 -6.552361e-02 -6.552361e-02 0.9979 2970.0652 828.8131)">
		<stop  offset="5.747130e-02" style="stop-color:#ECEBFF"/>
		<stop  offset="0.9962" style="stop-color:#FFFFFF"/>
	</linearGradient>
	<path class="st6" d="M963.5,377.2c0,0,2.8,8.4,2.8,8.4c0.1,0.2-6.8,3-7.5,2.8c-1-0.2-1.7-1.2-2.4-2c-1.3-1.4-3.9-0.8-3.7,1.4
		c0.1,0.9,0.4,1.8,0.1,2.7c-0.5,1.7-3.1,2.8-4.8,2.4c-0.9-0.2-1.1-1-1.9-1.5c-1.1-0.8-2.9-1.1-3.9,0c-1,1.2-0.5,3-1.1,4.4
		c-0.8,1.8-3.4,2.2-5,1c-1-0.7-1.6-1.8-2.6-2.5c-1.9-1.2-4.9-0.1-5.5,2.2c-0.3,1.2,0,2.6-0.4,3.8c-0.6,1.6-2.9,2.2-4.2,1.2
		c-1.5-1.1-2.5-3.2-4.6-2.5c-2.8,0.9-1.1,4.1-2.9,5.6c-1.3,1.1-3.1,0.9-3.9-0.4c-1-1.6-3.8-2-4.9-0.3c-0.8,1.3-0.2,3.2-1.4,4.2
		c-0.7,0.5-7.5,2.4-7.5,2.4l-2.8-8.8L963.5,377.2z"/>
	
		<linearGradient id="SVGID_7_" gradientUnits="userSpaceOnUse" x1="2048.3762" y1="-338.7853" x2="2104.0627" y2="-295.9016" gradientTransform="matrix(-0.9979 -6.552361e-02 -6.552361e-02 0.9979 2970.0652 828.8131)">
		<stop  offset="5.747130e-02" style="stop-color:#A08BF0"/>
		<stop  offset="0.977" style="stop-color:#5754FE"/>
	</linearGradient>
	<path class="st7" d="M921.9,357.1c0,0,2.6,5.3,16,1c18.9-6,25.6,19.1,25.6,19.1s-20.9,10.4-32.1,14.6c-11.3,4.1-36.1,9.9-36.1,9.9
		s-4.8-10.1-6.6-20c-1.8-9.9-1.9-14.7-1.9-14.7L921.9,357.1z"/>
	
		<linearGradient id="SVGID_8_" gradientUnits="userSpaceOnUse" x1="2152.6943" y1="-498.0206" x2="2236.0249" y2="-364.3187" gradientTransform="matrix(-0.9979 -6.552361e-02 -6.552361e-02 0.9979 2970.0652 828.8131)">
		<stop  offset="5.747130e-02" style="stop-color:#DBCFFF"/>
		<stop  offset="0.9962" style="stop-color:#FFFFFF"/>
	</linearGradient>
	<path class="st8" d="M723.3,270.9c9.5,15,29.9,19,46.1,20.9c10,1.2,20.1,1.4,30.1,1.4c4.9,0,10,0.5,14.8-0.8
		c4.4-1.2,8.1-2.4,12.5,0c0.8,0.4,1.6,1,2.5,1.2c2.2,0.5,4.2-1,6.1-2.2c1.9-1.2,4.5-2.1,6.1-0.6c1.1,1,1.4,2.7,2.7,3.5
		c2.2,1.2,5.1-1.7,7.3-0.5c1.4,0.7,1.7,2.5,1.6,4.1c-0.2,2-0.9,4-0.9,6.1c0,2,4.1,7.9,6.5,4.8c-2.9,3.6-0.2,8.9,2.8,12.4
		c0.1,0.1,0.3,0.3,0.4,0.4c2.6,3,5.4,6.3,5.4,9.9c0,0.6-0.1,1.1-0.2,1.7c-0.4,1.6-1.4,3.1-1.6,4.7c-0.6,4.9,5.3,7.7,10,8.9
		c-3,2.7-0.7,7.8,2.2,10.7c2.8,2.8,4.6,4.9,5.9,8.6c0.9,2.5-1.8,4.8,1.3,6.8c2.6,1.7,8.8,0.6,11.3-0.1c9.6-2.6,21.7-7.2,29.6-13.3
		c1.7-1.3-3.4-16.9-3.6-19.4c-0.1-1.1-0.2-2.2-0.9-3c-1.4-1.7-4.3-1.4-5.8-3c-1-1.1-0.9-2.8-0.8-4.2c0.4-4,1.1-8,2.2-11.9
		c0.3-1,0.6-2,0.5-3.1c-0.1-1.3-0.9-2.4-1.9-3.4c-2.1-2-5.2-3.5-5.7-6.4c-0.2-1,0-2.1,0.1-3.2c0-0.4,0-0.8,0-1.2
		c-0.3-2.1-1.9-3.8-3.2-5.5c-2.8-3.8-3.3-8.8-4.7-13.2c-1.8-5.7-4.2-11.3-6.5-16.8c-2.4-5.8-4.9-15-9.9-19.3
		c-14.9-12.7-86.3-8.5-90.7-19c-1.3-3-2.6-8.2-3.9-15.3c-1.8-9.4-3.6-22.1-5.6-37.1c-1.7-12.7-3.5-27.2-5.4-42.7
		c-0.2-1.8-0.9-3.6-2-5.3c-7.2-11.3-31.9-19.9-51.2-13.9c-6.8,2.1-12.9,5.9-17.3,12.1C688.4,153.7,701.4,236.3,723.3,270.9z"/>
	
		<linearGradient id="SVGID_9_" gradientUnits="userSpaceOnUse" x1="2290.2488" y1="-558.1343" x2="2392.6162" y2="-393.8884" gradientTransform="matrix(-0.9979 -6.552361e-02 -6.552361e-02 0.9979 2970.0652 828.8131)">
		<stop  offset="5.747130e-02" style="stop-color:#DBCFFF"/>
		<stop  offset="0.9962" style="stop-color:#FFFFFF"/>
	</linearGradient>
	<path class="st9" d="M632.6,194.1c4.5,47.8,17.5,95.7,28,101.9c6.6,3.9,21.4,3.9,33.9,0.9c7.3-1.8,13.7-4.6,17.4-8.4
		c1.1-1.1,2-2.6,2.6-4.2c5.2-13.2-3.1-42.6-9.5-84.7c-7.2-47.4,0.8-83.8-10-107.3c-1.4-3-3.6-5.4-6.5-7.4
		c-10.5-7.2-29.1-7.8-41.7-3.9c-4.9,1.5-8.9,3.7-11.2,6.4C626,98.9,627.8,142.4,632.6,194.1z"/>
	
		<linearGradient id="SVGID_10_" gradientUnits="userSpaceOnUse" x1="2339.4822" y1="-488.8442" x2="2340.228" y2="-509.6023" gradientTransform="matrix(-0.9979 -6.552361e-02 -6.552361e-02 0.9979 2970.0652 828.8131)">
		<stop  offset="5.747130e-02" style="stop-color:#A08BF0"/>
		<stop  offset="0.977" style="stop-color:#5754FE"/>
	</linearGradient>
	<path class="st10" d="M657.1,177c-0.4,6,4.1,11.2,10.1,11.5c6,0.4,11.2-4.1,11.5-10.1c0.4-6-4.1-11.2-10.1-11.5
		C662.7,166.5,657.5,171,657.1,177z"/>
	<g>
		
			<linearGradient id="SVGID_11_" gradientUnits="userSpaceOnUse" x1="2088.1692" y1="-389.8852" x2="2136.6467" y2="-357.0697" gradientTransform="matrix(-0.9979 -6.552361e-02 -6.552361e-02 0.9979 2970.0652 828.8131)">
			<stop  offset="5.747130e-02" style="stop-color:#A08BF0"/>
			<stop  offset="0.977" style="stop-color:#5754FE"/>
		</linearGradient>
		<path class="st11" d="M862,321.5c2.6,3,5.4,6.3,5.4,9.9c6.4-1.9,14-4.5,22-7.6c11.1-4.3,20.1-9,26.2-12.5c-2.1-2-5.1-3.5-5.7-6.4
			c-0.2-1,0-2.1,0.1-3.2c-6.2,3.5-14.9,8-24.6,11.8C876.8,317,868.6,319.6,862,321.5z"/>
	</g>
	<path class="st12" d="M727.5,168.2c3,5.2,7.5,9.4,12.1,13.4c14.9,12.8,32.1,22.9,50.5,29.8c0.3,0.1,0.7,0.2,1,0.3
		c-1.8-9.4-3.6-22.1-5.6-37.1c-6.8-7.2-13.7-14.4-20.5-21.6c-4.3-4.6-8.7-9.2-13.7-12.9c-3.4-2.5-7.3-4.7-11.5-5.4
		c-4.2-0.7-8.9,0.2-12,3.2c-2.8,2.7-4.1,6.7-4.5,10.6C722.5,155.3,724,162.3,727.5,168.2z"/>
	<path class="st12" d="M726.8,112.8c14.9,10,33.2,15,51.2,13.9C770.8,115.4,746.1,106.8,726.8,112.8z"/>
	
		<linearGradient id="SVGID_12_" gradientUnits="userSpaceOnUse" x1="2164.5417" y1="-650.7498" x2="2104.6572" y2="-740.6987" gradientTransform="matrix(-0.9989 4.687301e-02 4.687301e-02 0.9989 2916.4961 652.5383)">
		<stop  offset="5.747130e-02" style="stop-color:#DBCFFF"/>
		<stop  offset="0.9962" style="stop-color:#FFFFFF"/>
	</linearGradient>
	<path class="st13" d="M698.4,65.4c2.9,31.5,30.7,54.7,62.2,51.8c7.2-0.7,13.9-2.6,20-5.6c0.7-0.3,0.7-1.6,0.7-1.6
		s5.2-19.2,7.5-49.7c1.1-14.6,1.6-42.5,1.6-42.5s2.5-0.7,1.7-1.4c-11.3-9.5-26.2-14.6-42-13.2C718.7,6,695.5,33.9,698.4,65.4z"/>
	
		<linearGradient id="SVGID_13_" gradientUnits="userSpaceOnUse" x1="2133.1172" y1="-655.0085" x2="2084.9229" y2="-727.3984" gradientTransform="matrix(-0.9989 4.687301e-02 4.687301e-02 0.9989 2916.4961 652.5383)">
		<stop  offset="5.747130e-02" style="stop-color:#A08BF0"/>
		<stop  offset="0.977" style="stop-color:#5754FE"/>
	</linearGradient>
	<path class="st14" d="M726.5,73.5c0,0,12.3,22.3,40.4,34c4.7,2,9.3,3.2,13.7,4c20.7-10.2,34-32.3,31.8-56.6
		c-1.4-15.7-9-29.3-20.2-38.6c-9.6,1.4-22.9,7.5-36.1,19.3C731.4,57.7,726.5,73.5,726.5,73.5z"/>
	<g>
		<defs>
			<filter id="Adobe_OpacityMaskFilter" filterUnits="userSpaceOnUse" x="698.4" y="65.4" width="31" height="9.6">
				<feFlood  style="flood-color:white;flood-opacity:1" result="back"/>
				<feBlend  in="SourceGraphic" in2="back" mode="normal"/>
			</filter>
		</defs>
		<mask maskUnits="userSpaceOnUse" x="698.4" y="65.4" width="31" height="9.6" id="SVGID_14_">
			<g class="st15">
				<defs>
					<filter id="Adobe_OpacityMaskFilter_1_" filterUnits="userSpaceOnUse" x="698.4" y="65.4" width="31" height="9.6">
						<feFlood  style="flood-color:white;flood-opacity:1" result="back"/>
						<feBlend  in="SourceGraphic" in2="back" mode="normal"/>
					</filter>
				</defs>
				<mask maskUnits="userSpaceOnUse" x="698.4" y="65.4" width="31" height="9.6" id="SVGID_14_">
					<g class="st16">
					</g>
				</mask>
				
					<linearGradient id="SVGID_15_" gradientUnits="userSpaceOnUse" x1="2166.7734" y1="-695.9255" x2="2136.9421" y2="-697.4171" gradientTransform="matrix(-0.9979 6.555742e-02 6.555742e-02 0.9979 2906.8398 623.9348)">
					<stop  offset="0" style="stop-color:#000000"/>
					<stop  offset="0.9962" style="stop-color:#FFFFFF"/>
				</linearGradient>
				<path class="st17" d="M723.3,74.8c3.4-0.2,5.8-0.6,6-0.6l-0.5-3c-0.1,0-11.8,1.8-20.2-0.2c-8.3-2-10.3-5.6-10.3-5.6l0,0
					c0,0.6-0.9,5.9,9.6,8.5C713,75.1,719,75.1,723.3,74.8z"/>
			</g>
		</mask>
		
			<linearGradient id="SVGID_16_" gradientUnits="userSpaceOnUse" x1="2095.9373" y1="-691.6735" x2="2126.6558" y2="-694.1642" gradientTransform="matrix(-0.9979 6.555742e-02 6.555742e-02 0.9979 2906.8398 623.9348)">
			<stop  offset="5.747130e-02" style="stop-color:#A08BF0"/>
			<stop  offset="0.977" style="stop-color:#5754FE"/>
		</linearGradient>
		<path class="st18" d="M723.3,74.8c3.4-0.2,5.8-0.6,6-0.6l-0.5-3c-0.1,0-11.8,1.8-20.2-0.2c-8.3-2-10.3-5.6-10.3-5.6l0,0
			c0,0.6-0.9,5.9,9.6,8.5C713,75.1,719,75.1,723.3,74.8z"/>
	</g>
	
		<linearGradient id="SVGID_17_" gradientUnits="userSpaceOnUse" x1="2164.1675" y1="-670.2522" x2="2148.7664" y2="-693.3852" gradientTransform="matrix(-0.9989 4.687301e-02 4.687301e-02 0.9989 2916.4961 652.5383)">
		<stop  offset="5.747130e-02" style="stop-color:#DBCFFF"/>
		<stop  offset="0.9962" style="stop-color:#FFFFFF"/>
	</linearGradient>
	<path class="st19" d="M715.7,73.3c0.4,8.1,7.3,14.4,15.4,14c8.1-0.4,14.4-7.3,14-15.4c-0.4-8.1-7.3-14.4-15.4-14
		C721.6,58.3,715.3,65.2,715.7,73.3z"/>
	<g>
		
			<linearGradient id="SVGID_18_" gradientUnits="userSpaceOnUse" x1="2366.4883" y1="-476.7014" x2="2206.0081" y2="-469.968" gradientTransform="matrix(-0.9979 -6.552361e-02 -6.552361e-02 0.9979 2970.0652 828.8131)">
			<stop  offset="5.747130e-02" style="stop-color:#A08BF0"/>
			<stop  offset="0.977" style="stop-color:#5754FE"/>
		</linearGradient>
		<path class="st20" d="M746.1,238.6c3.4,0.2,6.8,0.2,10.1,0c22.6-1.7,35.8-12.7,42.9-21.6c7.6-9.5,10-18.5,10.2-19.5l-14.5-3.5l0,0
			c-0.3,1.1-7.4,27.4-39.7,29.8c-18.8,1.4-38.1-6.4-57.1-23.2c-14.7-13-23.7-26.7-23.8-26.8c0,0-4.5-2.9-8.6-0.6
			c-5.5,3.2-3.9,8.7-3.9,8.7c0.4,0.6,10,15.3,26.2,29.6c9.6,8.5,19.6,15.1,29.6,19.7C727,235.4,736.6,237.9,746.1,238.6z"/>
	</g>
	
		<linearGradient id="SVGID_19_" gradientUnits="userSpaceOnUse" x1="1691.6663" y1="-763.3229" x2="1736.886" y2="-763.3229" gradientTransform="matrix(-0.9794 0.2021 0.2021 0.9794 2767.1936 548.3692)">
		<stop  offset="5.747130e-02" style="stop-color:#A08BF0"/>
		<stop  offset="0.977" style="stop-color:#5754FE"/>
	</linearGradient>
	<path class="st21" d="M912.5,157.2c1.5,1.6,3,3.2,4.6,4.6c1.6,1.4,2.8,3,4.3,4.5c0.4,0.4,0.9,0.8,1.4,1c0.7,0.3,1.6,0.2,2.4,0.1
		c4.1-0.3,8.4-0.1,12.2,1.5c2,0.9,3.9,2.1,6,2.7c2.1,0.6,4.6,0.6,6.2-0.9c0.6-0.6,1.1-1.4,0.8-2.2c-0.1-0.4-0.4-0.7-0.7-1
		c-0.9-1-1.8-1.9-2.7-2.9c1.5,0.4,3.1,0.5,4.6,0.2c1.1-0.2,2.3-0.6,3-1.4c0.8-0.8,1-2.2,0.4-3.1c-0.4-0.5-1-0.8-1.6-1.1
		c-1.5-0.7-3-1.4-4.4-2c2.1-0.2,4.2,0.6,6.4,0.6c2.1,0,4.6-1.2,4.7-3.4c0.1-1.1-0.5-2.2-1.4-3c-0.8-0.8-1.9-1.3-2.9-1.7
		c-3.1-1.5-6.2-3-9.4-4.5c3.1,0.2,6.2-0.1,9.3-0.9c2-0.5,5.8-0.7,5.9-3.4c0.2-4.3-6.3-4.4-9.1-4.6c-3.4-0.2-6.7-0.5-10.1-0.7
		c1.8-3.4,2.4-7.4,1.9-11.3c-0.3-2-2.3-7.6-5.3-5.7c-0.6,0.4-1,1-1.4,1.7c-0.9,1.7-1.2,3.7-2,5.4c-1.8,4.2-5.3,5.8-9.2,7.6
		c-6.7,3.2-12.2,8.6-15.6,15.3c-0.7,1.4-1.3,2.9-1,4.5C910.3,154.8,911.4,156,912.5,157.2z"/>
	
		<linearGradient id="SVGID_20_" gradientUnits="userSpaceOnUse" x1="2197.5598" y1="-441.6545" x2="2180.406" y2="-562.477" gradientTransform="matrix(-0.9979 -6.552361e-02 -6.552361e-02 0.9979 2970.0652 828.8131)">
		<stop  offset="5.747130e-02" style="stop-color:#DBCFFF"/>
		<stop  offset="0.9962" style="stop-color:#FFFFFF"/>
	</linearGradient>
	<path class="st22" d="M730,166.7c12.4,13.4,81.8,47.8,103.6,48.7c17.2,0.7,35-10,50.6-18.1c1.9-1,3.8-1.9,5.6-2.8
		c1.3-0.6,2.6-1.3,3.9-2c0.8-0.5,1.6-1,2.3-1.6c2.3-2,3.9-4.7,6.5-6.2c3.2-2,7.6-2.1,10-5c1-1.2,1.5-2.7,2.3-4
		c1.7-2.8,4.5-4.5,7.3-5.9c3.4-1.7,4.7-2.4,3.5-6.7c-1.6-5.9-4.9-12.2-8-17.4c-1.3-2.1-3.2-4.4-5.6-4c-1.6,0.3-2.7,1.7-4.1,2.6
		c-3,1.8-6.9,0.7-10.3-0.4c-3.4-1-7.5-1.7-10.1,0.7c-2.1,2-2.9,5.9-5.8,6.1c-0.9,0.1-1.8-0.3-2.7-0.3c-1.8-0.1-3.4,1.1-5.1,1.8
		c-0.3,0.1-0.6,0.3-1,0.4c-3.3,1.1-7,1-10.4,1.6c-2.3,0.4-4.4,1.2-6,2.9c-2.1,2.3-3,6.1-6.1,6.6c-2.2,0.3-4.2-1.4-6.4-1.4
		c-3,0-5,3-6.5,5.6c-0.3,0.5-0.5,0.9-1,1.2c-1.2,0.7-2.6-0.6-3.1-1.9c-0.5-1.3-0.9-2.9-2.1-3.5c-2.8-1.3-5.7,4.1-8.5,2.6
		c0-3.2-0.3-7-3.1-8.4c-2.8-1.4-6.5,0.5-9.3-1c-2.2-1.1-2.9-3.9-4.1-6c-2.9-5.2-9.1-7.4-14.9-9c-8-2.2-13.3-7-20.6-10.1
		c-7.9-3.4-16.8-6.9-25.6-6.4C726.8,126.4,714.8,150.3,730,166.7z"/>
	<g>
		
			<linearGradient id="SVGID_21_" gradientUnits="userSpaceOnUse" x1="2145.0959" y1="-537.1907" x2="2117.281" y2="-494.638" gradientTransform="matrix(-0.9979 -6.552361e-02 -6.552361e-02 0.9979 2970.0652 828.8131)">
			<stop  offset="5.747130e-02" style="stop-color:#A08BF0"/>
			<stop  offset="0.977" style="stop-color:#5754FE"/>
		</linearGradient>
		<path class="st23" d="M862.3,154.2c1.8,6.8,4.8,15.3,9.4,23.9c4.2,7.7,8.6,14.2,12.5,19.2c1.9-1,3.8-1.9,5.6-2.8
			c1.3-0.6,2.6-1.3,3.9-2c-3.8-4.8-8.5-11.4-12.8-19.4c-3.9-7.3-6.5-14.6-8.2-20.6C869.4,153.7,865.6,153.6,862.3,154.2z"/>
	</g>
</g>
</svg>
