<?xml version="1.0" encoding="utf-8"?>
<!-- Generator: Adobe Illustrator 25.2.1, SVG Export Plug-In . SVG Version: 6.00 Build 0)  -->
<svg version="1.1" id="Ebene_1" xmlns="http://www.w3.org/2000/svg" xmlns:xlink="http://www.w3.org/1999/xlink" x="0px" y="0px"
	 viewBox="0 0 288 240" style="enable-background:new 0 0 288 240;" xml:space="preserve">
<style type="text/css">
	.st0{fill:url(#SVGID_1_);}
	.st1{fill:url(#SVGID_2_);}
</style>
<linearGradient id="SVGID_1_" gradientUnits="userSpaceOnUse" x1="239.7124" y1="186.7137" x2="62.3469" y2="68.1774">
	<stop  offset="0" style="stop-color:#E76A4B"/>
	<stop  offset="1" style="stop-color:#FBAA4C"/>
</linearGradient>
<path class="st0" d="M123.7,111.2L47.9,98.5l1.6-9.3l81,13.6c13.1-13.5,34.4-21.7,58.4-21.9l5.8-34.2c1.3-7.8-3.9-15.2-11.7-16.5
	L37,5.7c-7.8-1.3-15.2,3.9-16.5,11.7l-15,89.2c-1.3,7.8,3.9,15.2,11.7,16.5l15.9,2.7l-11.4,35.4l49.7-28.9l45.5,7.7
	c-0.4-4-0.3-8,0.4-12.1C118.4,121.8,120.6,116.3,123.7,111.2z M58.2,37.2l95.2,16l-1.6,9.3l-95.2-16L58.2,37.2z M53.8,63.2l95.2,16
	l-1.6,9.3l-95.2-16L53.8,63.2z"/>
<linearGradient id="SVGID_2_" gradientUnits="userSpaceOnUse" x1="247.3169" y1="175.3351" x2="69.9514" y2="56.7987">
	<stop  offset="0" style="stop-color:#E76A4B"/>
	<stop  offset="1" style="stop-color:#FBAA4C"/>
</linearGradient>
<path class="st1" d="M283.6,159c5.5-32.6-26.4-65.1-71.2-72.6c-6.6-1.1-13.2-1.6-19.6-1.6c-24,0.2-45.3,8.4-58.4,21.9
	c-2.6,2.6-4.8,5.4-6.7,8.4c-3.2,5-5.4,10.6-6.4,16.6c-0.7,4-0.8,8.1-0.4,12.1c3,28.2,32.3,54,71.6,60.6c11.8,2,23.3,2,33.9,0.4
	l23.1,29.9l0.8-36.8C268.1,189.8,280.7,176.1,283.6,159z M191.5,172.8l-17.5-2.9l2.6-15.5l17.5,2.9L191.5,172.8z M194,150.2
	l-0.3,1.8l-15.1-2.5l0.7-4.2c1-6.1,13.1-7.7,14.3-14.5c0.5-3.1-1.1-6.2-4.9-6.9c-4.8-0.8-6.3,2.6-6.9,6.1c-0.1,0.8-0.3,1.5-0.3,2.3
	l-16.3-2.7c0.1-1.1,0.1-2.1,0.3-3.2c1.8-10.9,13.3-16,27.1-13.7c13.5,2.3,21.5,10.5,19.8,21C210.4,144.9,194.7,145.7,194,150.2z
	 M211.4,176.2l-13-2.2l1.9-11.5l13,2.2L211.4,176.2z M229.4,179.2l-13-2.2l1.9-11.5l13,2.2L229.4,179.2z"/>
</svg>
