<?xml version="1.0" encoding="utf-8"?>
<!-- Generator: Adobe Illustrator 25.2.1, SVG Export Plug-In . SVG Version: 6.00 Build 0)  -->
<svg version="1.1" id="Ebene_1" xmlns="http://www.w3.org/2000/svg" xmlns:xlink="http://www.w3.org/1999/xlink" x="0px" y="0px"
	 viewBox="0 0 225 208" style="enable-background:new 0 0 225 208;" xml:space="preserve">
<style type="text/css">
	.st0{fill:url(#SVGID_1_);}
	.st1{fill:url(#SVGID_2_);}
	.st2{fill:url(#SVGID_3_);}
	.st3{fill:url(#SVGID_4_);}
</style>
<g>
	<g>
		<linearGradient id="SVGID_1_" gradientUnits="userSpaceOnUse" x1="-49.6263" y1="125.7177" x2="185.6903" y2="162.5956">
			<stop  offset="0" style="stop-color:#1F91B6"/>
			<stop  offset="0.1468" style="stop-color:#258EB4"/>
			<stop  offset="0.3402" style="stop-color:#3586B0"/>
			<stop  offset="0.5596" style="stop-color:#5178A9"/>
			<stop  offset="0.7964" style="stop-color:#77659E"/>
			<stop  offset="1" style="stop-color:#9D5194"/>
		</linearGradient>
		<path class="st0" d="M209.1,125.6c3.4-2,5.6-4.9,6.8-8.6l-68-16.9c-0.6,1.3-1.1,2.6-1.7,3.9c-1.8,4.3-3.2,7.6-4.4,10.1
			c-1.2,2.5-3,5.4-5.5,8.8c-2.5,3.4-5.1,5.9-8,7.6l-0.2,0.1c-2.8,1.7-6.3,2.9-10.4,3.5c-4.1,0.6-7.6,0.9-10.3,0.8
			c-2.8-0.1-6.4-0.4-11-0.8c-1.3-0.1-2.7-0.2-4.2-0.4l-16.9,68.1c3.8,0.7,7.4,0.1,10.8-2L209.1,125.6z M209.1,125.6"/>
		<linearGradient id="SVGID_2_" gradientUnits="userSpaceOnUse" x1="-52.3954" y1="143.3869" x2="182.9212" y2="180.2649">
			<stop  offset="0" style="stop-color:#1F91B6"/>
			<stop  offset="0.1468" style="stop-color:#258EB4"/>
			<stop  offset="0.3402" style="stop-color:#3586B0"/>
			<stop  offset="0.5596" style="stop-color:#5178A9"/>
			<stop  offset="0.7964" style="stop-color:#77659E"/>
			<stop  offset="1" style="stop-color:#9D5194"/>
		</linearGradient>
		<path class="st1" d="M37.4,130.3c-4.5-0.2-8.7-0.9-12.8-2.2l38.9,64.6l14.9-60C67.7,132,54,131.2,37.4,130.3L37.4,130.3z
			 M37.4,130.3"/>
		<linearGradient id="SVGID_3_" gradientUnits="userSpaceOnUse" x1="-35.2756" y1="34.1461" x2="200.041" y2="71.0241">
			<stop  offset="0" style="stop-color:#1F91B6"/>
			<stop  offset="0.1468" style="stop-color:#258EB4"/>
			<stop  offset="0.3402" style="stop-color:#3586B0"/>
			<stop  offset="0.5596" style="stop-color:#5178A9"/>
			<stop  offset="0.7964" style="stop-color:#77659E"/>
			<stop  offset="1" style="stop-color:#9D5194"/>
		</linearGradient>
		<path class="st2" d="M170.4,50.1c-6.7,14.6-12.4,27-17,37.4l60,14.9l-38.9-64.6C173.6,41.9,172.3,46,170.4,50.1L170.4,50.1z
			 M170.4,50.1"/>
		<linearGradient id="SVGID_4_" gradientUnits="userSpaceOnUse" x1="-36.439" y1="41.5696" x2="198.8776" y2="78.4476">
			<stop  offset="0" style="stop-color:#1F91B6"/>
			<stop  offset="0.1468" style="stop-color:#258EB4"/>
			<stop  offset="0.3402" style="stop-color:#3586B0"/>
			<stop  offset="0.5596" style="stop-color:#5178A9"/>
			<stop  offset="0.7964" style="stop-color:#77659E"/>
			<stop  offset="1" style="stop-color:#9D5194"/>
		</linearGradient>
		<path class="st3" d="M138.1,7.8L15,82.1c-4.3,2.6-6.7,6-7.3,10.3c-0.6,4.3,0.5,8.6,3.1,13c2.1,3.5,5.9,6.4,11.5,8.6
			c5.5,2.2,10.7,3.5,15.6,3.8c2.7,0.2,10.8,0.7,24.3,1.6c7.3,0.5,13.6,0.9,19.1,1.2c4.7,0.3,8.7,0.6,12,0.8c0.4,0,1,0.1,1.8,0.1
			c0.9,0.1,2,0.2,3.3,0.3c2.6,0.2,4.7,0.4,6.4,0.5c1.7,0.1,3.7,0.1,6,0.1c2.3,0,4.4-0.2,6.2-0.6c1.8-0.4,3.4-1,4.6-1.8l0.2-0.1
			c1.3-0.8,2.5-1.9,3.7-3.3c1.2-1.4,2.4-3.1,3.4-5.2c1.1-2,2-3.8,2.7-5.3c0.7-1.5,1.6-3.5,2.6-5.9c0.5-1.2,1-2.3,1.3-3.1
			c0.3-0.7,0.6-1.3,0.7-1.6c1-2.4,2.7-6,4.9-11c4-9,10-22.2,17.8-39.8c2.4-5.3,3.7-10.8,4-16.4c0.3-5.7-0.9-10.7-3.5-15.1
			c-2.2-3.7-5.4-6-9.7-7.1C145.7,5.1,141.8,5.7,138.1,7.8L138.1,7.8z M138.1,7.8"/>
	</g>
</g>
</svg>
