<?xml version="1.0" encoding="utf-8"?>
<!-- Generator: Adobe Illustrator 25.2.1, SVG Export Plug-In . SVG Version: 6.00 Build 0)  -->
<svg version="1.1" id="Ebene_1" xmlns="http://www.w3.org/2000/svg" xmlns:xlink="http://www.w3.org/1999/xlink" x="0px" y="0px"
	 viewBox="0 0 299 298" style="enable-background:new 0 0 299 298;" xml:space="preserve">
<style type="text/css">
	.st0{fill:url(#SVGID_1_);}
	.st1{fill:url(#SVGID_2_);}
	.st2{fill:url(#SVGID_3_);}
	.st3{fill:url(#SVGID_4_);}
	.st4{fill:url(#SVGID_5_);}
	.st5{fill:url(#SVGID_6_);}
	.st6{fill:url(#SVGID_7_);}
	.st7{fill:url(#SVGID_8_);}
	.st8{fill:url(#SVGID_9_);}
	.st9{fill:url(#SVGID_10_);}
	.st10{fill:url(#SVGID_11_);}
	.st11{opacity:0.33;fill:#DCB8FF;}
</style>
<g>
	<linearGradient id="SVGID_1_" gradientUnits="userSpaceOnUse" x1="82.9202" y1="38.1128" x2="238.8615" y2="298.8668">
		<stop  offset="0" style="stop-color:#CBA0FF"/>
		<stop  offset="1" style="stop-color:#7852C4"/>
	</linearGradient>
	<path class="st0" d="M298.5,149c0,82.4-66.8,149.3-149.3,149.3S0,231.5,0,149c0-22.8,5.1-44.4,14.2-63.7
		c23.9-50.6,75.4-85.6,135-85.6c23.8,0,46.4,5.6,66.4,15.5C264.8,39.7,298.5,90.4,298.5,149z"/>
	
		<linearGradient id="SVGID_2_" gradientUnits="userSpaceOnUse" x1="211.7856" y1="435.0879" x2="127.4346" y2="324.4457" gradientTransform="matrix(0.8881 -0.4596 0.4596 0.8881 -240.3897 -177.4138)">
		<stop  offset="0" style="stop-color:#CBA0FF"/>
		<stop  offset="1" style="stop-color:#7852C4"/>
	</linearGradient>
	<path class="st1" d="M80,61c3.8,7.3-1.6,17.5-12,22.9c-10.4,5.4-21.9,3.9-25.6-3.4c-3.8-7.3,1.6-17.5,12-22.9
		C64.8,52.2,76.3,53.7,80,61z"/>
	<linearGradient id="SVGID_3_" gradientUnits="userSpaceOnUse" x1="38.6964" y1="167.7467" x2="36.9922" y2="115.7709">
		<stop  offset="0" style="stop-color:#9762D3"/>
		<stop  offset="1" style="stop-color:#6039C4"/>
	</linearGradient>
	<path class="st2" d="M63.9,165.4c-5.5,9.9-21.5,11.6-35.7,3.7c-14.2-7.9-21.3-22.3-15.8-32.3c5.5-9.9,21.5-11.6,35.7-3.7
		C62.3,141,69.4,155.5,63.9,165.4z"/>
	
		<linearGradient id="SVGID_4_" gradientUnits="userSpaceOnUse" x1="138.7936" y1="36.9472" x2="84.586" y2="-34.1563" gradientTransform="matrix(0.9695 0.2449 -0.2449 0.9695 81.5989 18.8569)">
		<stop  offset="0" style="stop-color:#CBA0FF"/>
		<stop  offset="1" style="stop-color:#7852C4"/>
	</linearGradient>
	<path class="st3" d="M196.2,35.5c-1.3,5.1-8.2,7.7-15.5,5.9c-7.3-1.8-12.2-7.5-10.9-12.6c1.3-5.1,8.2-7.7,15.5-5.9
		C192.6,24.8,197.5,30.4,196.2,35.5z"/>
	
		<linearGradient id="SVGID_5_" gradientUnits="userSpaceOnUse" x1="-682.9695" y1="179.2627" x2="-737.1755" y2="108.1612" gradientTransform="matrix(-0.2687 0.9632 -0.9632 -0.2687 122.8436 879.8592)">
		<stop  offset="0" style="stop-color:#9762D3"/>
		<stop  offset="1" style="stop-color:#6039C4"/>
	</linearGradient>
	<path class="st4" d="M187.1,164.2c-5.1-1.4-7.5-8.4-5.5-15.7c2-7.3,7.8-12,12.8-10.6c5.1,1.4,7.5,8.4,5.5,15.7
		C197.9,160.9,192.2,165.6,187.1,164.2z"/>
	<linearGradient id="SVGID_6_" gradientUnits="userSpaceOnUse" x1="165.3869" y1="150.6149" x2="117.6715" y2="84.1542">
		<stop  offset="0" style="stop-color:#9762D3"/>
		<stop  offset="1" style="stop-color:#6039C4"/>
	</linearGradient>
	<path class="st5" d="M174.7,107.2c8.3,15,2.1,34.4-13.8,43.3c-16,8.9-35.7,3.9-44.1-11.1c-8.3-15-2.1-34.4,13.8-43.3
		C146.6,87.2,166.3,92.1,174.7,107.2z"/>
	<linearGradient id="SVGID_7_" gradientUnits="userSpaceOnUse" x1="277.7176" y1="131.4261" x2="225.7421" y2="83.7108">
		<stop  offset="0" style="stop-color:#9251E3"/>
		<stop  offset="1" style="stop-color:#693CC4"/>
	</linearGradient>
	<path class="st6" d="M274.3,129.4c-9,9.3-27,6.4-40.4-6.4c-13.3-12.8-16.9-30.8-8-40.1c9-9.3,27-6.4,40.4,6.4
		C279.7,102.1,283.3,120.1,274.3,129.4z"/>
	<linearGradient id="SVGID_8_" gradientUnits="userSpaceOnUse" x1="118.5127" y1="281.0406" x2="108.2879" y2="189.0178">
		<stop  offset="0" style="stop-color:#9251E3"/>
		<stop  offset="1" style="stop-color:#593AB5"/>
	</linearGradient>
	<path class="st7" d="M146.5,264.3c-14.4,15-41.1,12.8-59.5-5C68.5,241.5,65.2,215,79.7,200c14.4-15,41.1-12.8,59.5,5
		C157.6,222.7,160.9,249.3,146.5,264.3z"/>
	<linearGradient id="SVGID_9_" gradientUnits="userSpaceOnUse" x1="310.4258" y1="289.7909" x2="211.5869" y2="184.1353">
		<stop  offset="0" style="stop-color:#9251E3"/>
		<stop  offset="1" style="stop-color:#693CC4"/>
	</linearGradient>
	<path class="st8" d="M224.5,243.9c-16.1-4.2-25-23.7-19.9-43.5c5.2-19.8,22.4-32.5,38.5-28.3c16.1,4.2,25,23.7,19.9,43.5
		C257.9,235.4,240.6,248.1,224.5,243.9z"/>
	<linearGradient id="SVGID_10_" gradientUnits="userSpaceOnUse" x1="83.4361" y1="114.652" x2="80.3119" y2="86.8181">
		<stop  offset="0" style="stop-color:#CBA0FF"/>
		<stop  offset="1" style="stop-color:#7852C4"/>
	</linearGradient>
	<path class="st9" d="M89.3,95.1c0,3-3.6,5.5-8,5.5c-4.4,0-8-2.5-8-5.5c0-3,3.6-5.5,8-5.5C85.7,89.6,89.3,92.1,89.3,95.1z"/>
	<linearGradient id="SVGID_11_" gradientUnits="userSpaceOnUse" x1="42.9467" y1="198.5956" x2="42.2899" y2="178.5619">
		<stop  offset="0" style="stop-color:#9762D3"/>
		<stop  offset="1" style="stop-color:#6039C4"/>
	</linearGradient>
	<path class="st10" d="M54.7,192.2c0,4.9-5.3,9-11.9,9c-6.6,0-11.9-4-11.9-9c0-4.9,5.3-9,11.9-9C49.3,183.2,54.7,187.2,54.7,192.2z"
		/>
	<path class="st11" d="M224.4,100c-16.8,59.3-76.7,94.3-133.7,78.2C47.9,166,18.9,128.4,14.2,85.3c23.9-50.6,75.4-85.6,135-85.6
		c23.8,0,46.4,5.6,66.4,15.5C228.9,40.1,232.8,70.3,224.4,100z"/>
</g>
</svg>
