<?xml version="1.0" encoding="utf-8"?>
<!-- Generator: Adobe Illustrator 25.2.1, SVG Export Plug-In . SVG Version: 6.00 Build 0)  -->
<svg version="1.1" id="Ebene_1" xmlns="http://www.w3.org/2000/svg" xmlns:xlink="http://www.w3.org/1999/xlink" x="0px" y="0px"
	 viewBox="0 0 131 132" style="enable-background:new 0 0 131 132;" xml:space="preserve">
<style type="text/css">
	.st0{fill:url(#SVGID_1_);}
</style>
<linearGradient id="SVGID_1_" gradientUnits="userSpaceOnUse" x1="84.1384" y1="-2.9537" x2="45.8401" y2="136.8352">
	<stop  offset="8.045980e-02" style="stop-color:#FF7876"/>
	<stop  offset="1" style="stop-color:#FFD645"/>
</linearGradient>
<path class="st0" d="M-0.3,66c0,7,1.1,13.8,3.2,20.2c7,21.8,25.2,38.6,47.8,43.7c4.7,1.1,9.6,1.6,14.5,1.6
	c30.3,0,55.7-20.5,63.2-48.4c1.5-5.5,2.3-11.2,2.3-17.2c0-9.9-2.2-19.2-6.1-27.6c-5.2-11.2-13.5-20.8-23.8-27.4
	c-3.3-2.1-6.8-4-10.5-5.5c-7.7-3.2-16.2-5-25.1-5C41,0.5,19.8,13.7,8.5,33.3c-4,6.9-6.7,14.5-8,22.6C0,59.2-0.3,62.6-0.3,66z"/>
</svg>
