<?xml version="1.0" encoding="utf-8"?>
<!-- Generator: Adobe Illustrator 25.2.1, SVG Export Plug-In . SVG Version: 6.00 Build 0)  -->
<svg version="1.1" id="Ebene_1" xmlns="http://www.w3.org/2000/svg" xmlns:xlink="http://www.w3.org/1999/xlink" x="0px" y="0px"
	 viewBox="0 0 355 214" style="enable-background:new 0 0 355 214;" xml:space="preserve">
<style type="text/css">
	.st0{fill:url(#SVGID_1_);}
	.st1{fill:url(#SVGID_2_);}
</style>
<g>
	
		<linearGradient id="SVGID_1_" gradientUnits="userSpaceOnUse" x1="405.7886" y1="308.6275" x2="658.2321" y2="103.7457" gradientTransform="matrix(0.9887 0.15 -0.15 0.9887 -277.2607 -200.4031)">
		<stop  offset="0" style="stop-color:#FF5D97"/>
		<stop  offset="1" style="stop-color:#4B0674"/>
	</linearGradient>
	<path class="st0" d="M134.1,7.8c57.2-21.5,122.8,5.5,146.7,60.3c23.8,54.8-3.2,116.7-60.3,138.2c-57.2,21.5-122.8-5.5-146.7-60.3
		C50,91.2,77,29.3,134.1,7.8z"/>
	<g>
		
			<linearGradient id="SVGID_2_" gradientUnits="userSpaceOnUse" x1="307.1565" y1="235.789" x2="683.9662" y2="235.789" gradientTransform="matrix(0.9887 0.15 -0.15 0.9887 -277.2607 -200.4031)">
			<stop  offset="0" style="stop-color:#FF8EAE"/>
			<stop  offset="1" style="stop-color:#D83D96"/>
		</linearGradient>
		<path class="st1" d="M200.7,66.8C137.2,32.6,76,8,41,2.6C33.5,1.4,10.8-2.1,2.3,12.7c-11.8,20.3,23.7,53,63.4,81.1
			c2-11.6,4-18.7,7.4-28.2C49.7,48.5,36.8,36.1,30.8,28.2c1.7,0.1,3.7,0.3,6.2,0.7c31.4,4.8,90.3,28.8,150.2,61.1
			c80.6,43.5,124.8,80.4,136.5,96c-1.7-0.1-3.7-0.3-6.2-0.7c-12.7-2-29-6.8-49-14.3c-4.9,6.2-19.8,20.1-21.1,20.8
			c26.9,10.7,49.1,17.2,66.2,19.8c7.4,1.2,30.1,4.6,38.7-10.1C374,164.1,241.7,88.9,200.7,66.8z"/>
	</g>
</g>
</svg>
