<?xml version="1.0" encoding="utf-8"?>
<!-- Generator: Adobe Illustrator 25.2.1, SVG Export Plug-In . SVG Version: 6.00 Build 0)  -->
<svg version="1.1" id="Ebene_1" xmlns="http://www.w3.org/2000/svg" xmlns:xlink="http://www.w3.org/1999/xlink" x="0px" y="0px"
	 viewBox="0 0 645 305" style="enable-background:new 0 0 645 305;" xml:space="preserve">
<style type="text/css">
	.st0{fill:url(#SVGID_1_);}
	.st1{fill:#EACED8;}
	.st2{fill:#D3AFBE;}
	.st3{fill:#FFE6F7;}
	.st4{fill:url(#SVGID_2_);}
	.st5{fill:url(#SVGID_3_);}
	.st6{fill:url(#SVGID_4_);}
	.st7{fill:url(#SVGID_5_);}
	.st8{fill:url(#SVGID_6_);}
	.st9{opacity:0.45;fill:#6633CC;}
	.st10{fill:url(#SVGID_7_);}
	.st11{fill:url(#SVGID_8_);}
	.st12{fill:url(#SVGID_9_);}
	.st13{fill:url(#SVGID_10_);}
	.st14{fill:url(#SVGID_11_);}
	.st15{fill:url(#SVGID_12_);}
	.st16{fill:url(#SVGID_13_);}
	.st17{fill:#FFFFFF;}
	.st18{opacity:0.63;fill:#FFAF22;}
</style>
<g>
	
		<linearGradient id="SVGID_1_" gradientUnits="userSpaceOnUse" x1="1430.0432" y1="920.7186" x2="1409.59" y2="674.347" gradientTransform="matrix(-0.407 -0.9135 -0.9135 0.407 1431.333 1197.1973)">
		<stop  offset="0.1533" style="stop-color:#FFAC27"/>
		<stop  offset="1" style="stop-color:#D42C00"/>
	</linearGradient>
	<path class="st0" d="M141,304.5c21.9-3.6,42.8-13.4,59.5-28C137.4,298,62.3,298.5,1.2,285c47.6-54.6,79.8-81.8,132.3-119.1
		c-24.3,10.8-47.7,23.5-69.9,38.1c36.1-58,97.7-99.4,165-111.1c12.7,55.1,34.1,108.2,63.3,156.7C250.1,284.8,195.6,304.6,141,304.5z
		"/>
	<path class="st1" d="M307,181.4l-57.5,27.4c0,0-0.8,13.4,13.7,38.9c0.1,0.1,0.1,0.2,0.2,0.3c10.7,18.8,21.5,25.5,21.5,25.5
		s12.5-6,27.1-18.4c7.9-6.8,13.6-13.2,17.4-18.3c4.7-6.2,6.6-10.3,6.6-10.3L307,181.4z"/>
	<path class="st2" d="M307,181.4l-57.5,27.4c0,0-0.8,13.4,13.7,38.9c9.4-10.4,22.3-17.7,36.1-20.2c4.5-0.8,9.1-1.1,13.6-0.2
		c6.6,1.3,11.6,5.2,16.5,9.6c4.7-6.2,6.6-10.3,6.6-10.3L307,181.4z"/>
	<path class="st1" d="M205.7,95.8c0,0-1.8,10.5,3.1,28c0.5,1.6,1,3.3,1.5,5.1c9.3,28.1,19.9,36.5,19.9,36.5l58.9-24.5l-14.2-51.7
		c0,0-6.3-1.9-17.3-2.3c-5.5-0.2-12.3,0-20,1C218.4,90.5,205.7,95.8,205.7,95.8z"/>
	<path class="st2" d="M254.1,107c-5.6,9.1-15.8,14.8-26.4,16.7c-6.3,1.1-12.6,1-19,0.2c0.5,1.6,1,3.3,1.5,5.1
		c9.3,28.1,19.9,36.5,19.9,36.5l58.9-24.5l-14.2-51.7c0,0-6.3-1.9-17.3-2.3C259,93.7,257.9,100.8,254.1,107z"/>
	<path class="st3" d="M312.7,191.5c0,0-10.5,15.7-27.3,29.7c-16.3,13.6-38.8,23.6-38.8,23.6s-20.4-14.5-33.9-44.8
		c-14.7-33-10.9-55.9-10.9-55.9s19.5-8.5,39.9-12.7c25.2-5.2,43.5,1.2,43.5,1.2L312.7,191.5z"/>
	
		<linearGradient id="SVGID_2_" gradientUnits="userSpaceOnUse" x1="1565.4552" y1="578.4446" x2="1470.6292" y2="543.9624" gradientTransform="matrix(-0.407 -0.9135 -0.9135 0.407 1431.333 1197.1973)">
		<stop  offset="0.4559" style="stop-color:#CC5940"/>
		<stop  offset="1" style="stop-color:#680691"/>
	</linearGradient>
	<path class="st4" d="M381.7,37.7c0,0-29.8-37-77.9-29.2c-49.3,7.9-69.5,47.8-65.1,51.5c1.7,1.4,17.7-8.1,39.8-6
		c26.2,2.5,34.7,16.5,34.7,16.5L381.7,37.7z"/>
	
		<linearGradient id="SVGID_3_" gradientUnits="userSpaceOnUse" x1="1886.1462" y1="578.7642" x2="1791.3234" y2="544.2831" gradientTransform="matrix(0.407 0.9135 -0.9135 0.407 153.4362 -1671.3301)">
		<stop  offset="0.4559" style="stop-color:#CC5940"/>
		<stop  offset="1" style="stop-color:#680691"/>
	</linearGradient>
	<path class="st5" d="M444,177.5c0,0,7.5,46.9-30.4,77.5c-38.8,31.3-82,19.7-81.8,13.9c0.1-2.2,17.8-7.8,31.1-25.6
		c15.7-21.1,10.9-36.8,10.9-36.8L444,177.5z"/>
	<path class="st3" d="M285.5,84.5l59.9,134.3c0,0,48.8-12,105.3-41.5c7.7-4,15.5-8.3,23.3-13c54.3-32.3,97.9-74,122.4-105.1
		c16-20.3,23.8-36,21.3-41.7l-0.4-0.8c-0.7-1.7-2.7-3.3-5.8-4.7c-2.6-1.2-6-2.3-10-3.3c-32.9-8-111-7.7-189.4,16.7
		C339.1,48.1,285.5,84.5,285.5,84.5z"/>
	<path class="st1" d="M285.5,84.5l59.9,134.3c0,0,48.8-12,105.3-41.5c-36.5,6-77.5-1.6-95.4-37.2c-10.2-20.2-10.5-46.3,2.4-65
		c13.9-20.1,42.1-32.6,64.9-39.1c25.3-7.3,52.1-8.8,78.2-6.7c23.4,1.9,45,9.5,67.2,16.1c10.1,3,20.4,6.8,28.3,13.8
		c16-20.3,23.8-36,21.3-41.7l-0.4-0.8c-0.7-1.7-2.7-3.3-5.8-4.7c-0.9,0.6-1.7,1.4-2.2,2.4c-2.8-1.6-5.4-3.6-7.8-5.7
		c-32.9-8-111-7.7-189.4,16.7C339.1,48.1,285.5,84.5,285.5,84.5z"/>
	<g>
		<path class="st1" d="M342.7,213.2c7-0.4,15.3-5.8,16.5-13.3c0.1-0.8,0.2-1.7,0.3-2.5c0.3-2.7,0.6-5.3,2-7.3
			c2.4-3.4,7.5-3.9,11.1-3.2c2.2,0.4,4.4,1.2,6.7,1.9c2,0.7,4.2,1.4,6.3,1.9c5.8,1.2,10.9-0.1,13.7-3.5c2.1-2.5,2.7-5.7,3.2-8.8
			c0.3-2,0.7-3.8,1.4-5.5c3.6-8.6,10.9-8.1,21.4-4.5c7.7,2.6,16.9,1.7,27.5-2.7c18.3-7.7,35.2-22.9,50.2-45.1l0.6-0.9
			c4.8-7,9.7-14.3,17.4-16.5c3.2-0.9,6.6-0.8,9.5-0.6l0.9,0.1c4.4,0.3,9.4,0.7,13.1-2.1c3.5-2.7,4.5-6.9,5.4-11
			c0.7-3.3,1.4-6.4,3.3-8.7c2-2.5,5.4-4,9.5-4.3c3.2-0.2,6.4,0.3,9.6,0.7c0.6,0.1,1.2,0.2,1.8,0.3l0.3-2.4c-0.6-0.1-1.2-0.2-1.8-0.3
			c-3.3-0.5-6.7-1-10.1-0.7c-4.8,0.3-8.8,2.2-11.2,5.2c-2.2,2.8-3,6.3-3.8,9.7c-0.9,3.9-1.7,7.5-4.5,9.6c-3,2.3-7.3,2-11.5,1.6
			l-0.9-0.1c-3.1-0.2-6.8-0.3-10.4,0.7c-8.6,2.4-14,10.4-18.7,17.5l-0.6,0.9c-14.8,21.8-31.3,36.7-49.2,44.2
			c-9.9,4.2-18.6,5.1-25.7,2.6c-6.7-2.3-19.2-6.6-24.4,5.9c-0.8,2-1.2,4-1.5,6.1c-0.5,2.9-0.9,5.6-2.6,7.6
			c-2.7,3.2-7.6,3.4-11.4,2.6c-2-0.4-4.1-1.1-6-1.8c-2.3-0.8-4.6-1.6-7-2c-4.5-0.8-10.4-0.2-13.5,4.2c-1.8,2.5-2.1,5.5-2.4,8.5
			c-0.1,0.8-0.2,1.6-0.3,2.4c-0.9,6.2-8.2,10.9-14.2,11.2L342.7,213.2z"/>
	</g>
	<g>
		<path class="st1" d="M320.9,168.4c10.7,8.1,28.4,8.9,39.4,1.9c4.5-2.8,7.8-7,11-11.1c3.5-4.4,6.9-8.6,11.5-11.1
			c5.7-3.1,13.2-3.5,22.9-1.2l1.2,0.3c15.4,3.6,28.7,6.7,44.8,1.9c21.2-6.4,37-21.2,44.6-41.6c0.4-1.1,0.8-2.3,1.2-3.5
			c2.1-6,4.2-12.1,9.1-15.5c3.7-2.6,8.6-3.2,13.3-3.8l1.1-0.1c4.9-0.6,10.2-1.5,15-3.8c5.4-2.5,9.3-6.5,11.1-11.1
			c0.7-1.8,1.1-3.7,1.4-5.5c0.4-2,0.8-3.9,1.6-5.7c2.4-5.4,8.9-8.5,14.6-7l0.6-2.4c-6.8-1.8-14.6,2-17.5,8.4c-0.9,2-1.3,4.2-1.7,6.2
			c-0.4,1.8-0.7,3.5-1.3,5.1c-1.6,4-5.1,7.5-9.9,9.8c-4.5,2.1-9.5,3-14.3,3.6l-1.1,0.1c-5,0.6-10.2,1.3-14.4,4.2
			c-5.6,3.9-7.8,10.4-10,16.7c-0.4,1.2-0.8,2.3-1.2,3.4c-7.3,19.7-22.6,34-43,40.2c-15.4,4.7-28.4,1.6-43.5-1.9l-1.2-0.3
			c-10.3-2.4-18.4-1.9-24.6,1.4c-5.1,2.8-8.8,7.3-12.3,11.8c-3.1,3.9-6.3,7.9-10.4,10.5c-10.1,6.4-26.9,5.6-36.7-1.8L320.9,168.4z"
			/>
	</g>
	<g>
		<path class="st1" d="M295.1,130l2.3-0.7c-3.3-10.2-1-22,5.8-30.7c6.2-7.9,15.2-12.1,24.7-11.5c2.5,0.1,5,0.6,7.5,1.1
			c3.9,0.7,8,1.5,12.1,1c9-1,15.8-7.5,20-12.8c2.5-3.2,4.8-6.7,6.9-10.1c2-3.1,4-6.3,6.3-9.3c12.4-16.1,33.6-25.4,53.9-23.7
			c2.3,0.2,4.7,0.5,7.1,0.8c9.1,1.2,18.5,2.5,26.1-2.6c1.8-1.2,3.4-2.7,5-4.2c1.2-1.1,2.3-2.2,3.5-3.1c5.1-3.9,12-5.4,18.6-3.9
			c3.3,0.7,6.1,2.4,9,4.2c2.8,1.7,5.6,3.4,9,4.4c13.9,4,29.8-1.2,38.8-12.6l-1.9-1.5c-8.3,10.6-23.2,15.4-36.2,11.7
			c-3.1-0.9-5.7-2.5-8.4-4.1c-3-1.8-6-3.7-9.7-4.5c-7.3-1.6-15,0-20.6,4.3c-1.3,1-2.5,2.2-3.7,3.3c-1.5,1.5-3,2.8-4.6,3.9
			c-6.9,4.6-15.8,3.4-24.5,2.2c-2.4-0.3-4.8-0.6-7.2-0.9c-21.1-1.8-43.1,7.9-56,24.6c-2.3,3-4.4,6.3-6.4,9.5
			c-2.1,3.3-4.3,6.8-6.8,9.9c-3.9,4.9-10.3,11-18.4,11.9c-3.8,0.4-7.5-0.3-11.4-1c-2.5-0.5-5.2-1-7.8-1.1
			c-10.4-0.6-20.1,3.9-26.8,12.5C294,106.3,291.6,119,295.1,130z"/>
	</g>
	<g>
		<path class="st1" d="M306.1,125l2.4-0.2c-0.2-3.4,0.9-6.3,3.3-8.7c5.1-5.1,15.3-6.7,22.5-6.2c2,0.2,4,0.4,6,0.6
			c7.9,0.9,16,1.8,23.4-1.4c4.1-1.8,7.1-4.6,8.4-7.9c1.4-3.6,0.9-7,0.3-10.4c-0.4-2.4-0.8-4.7-0.4-6.9c0.6-3.5,3.8-8.3,7-9.2
			c0.6-0.2,1.5-0.1,2.4,0c1.1,0.1,2.3,0.3,3.5,0c3.1-0.7,5.6-2.5,7.1-3.8c2.2-1.9,4-4.2,5.7-6.3c1.7-2.1,3.3-4.1,5.2-5.8
			c11-10.1,24.1-16.4,36.1-17.5c9.7-0.8,19.1,3.1,28.2,6.9c3.2,1.3,6.5,2.7,9.8,3.9c10.5,3.7,16.8-3,22.8-9.4
			c1.8-1.9,3.6-3.9,5.6-5.6c4.2-3.7,10.4,0.7,12.2,2.1c7.9,6.2,15.2,8.6,22.2,7.2c10.5-2,16.7-12.2,21.8-22.9l-2.2-1.1
			c-4.9,10.1-10.7,19.8-20.1,21.6c-6.3,1.2-12.9-1-20.2-6.8c-5.8-4.6-11.5-5.3-15.3-2c-2,1.8-3.9,3.8-5.7,5.8
			c-6,6.4-11.2,12-20.2,8.8c-3.2-1.1-6.5-2.5-9.7-3.9c-9.4-3.9-19.1-8-29.4-7.1c-12.5,1.1-26.1,7.7-37.5,18.1
			c-2.1,1.9-3.8,4-5.5,6.1c-1.8,2.2-3.4,4.2-5.4,6c-1.9,1.7-4,2.8-6,3.3c-0.7,0.2-1.7,0-2.6-0.1c-1.2-0.1-2.3-0.3-3.4,0
			c-4.2,1.3-7.9,6.9-8.7,11.1c-0.4,2.6,0,5.2,0.4,7.7c0.5,3.1,1,6.1-0.1,9c-1.5,3.7-5.1,5.7-7.1,6.6c-6.8,2.9-14.6,2-22.1,1.2
			c-2-0.2-4.1-0.5-6.1-0.6c-7.8-0.6-18.8,1.3-24.4,6.8C307.2,117.2,305.9,120.8,306.1,125z"/>
	</g>
	
		<linearGradient id="SVGID_4_" gradientUnits="userSpaceOnUse" x1="1367.9487" y1="417.4839" x2="1486.4106" y2="515.2377" gradientTransform="matrix(-0.407 -0.9135 -0.9135 0.407 1431.333 1197.1973)">
		<stop  offset="0.4559" style="stop-color:#CC5940"/>
		<stop  offset="1" style="stop-color:#680691"/>
	</linearGradient>
	<circle class="st6" cx="442.9" cy="92.6" r="46.7"/>
	
		<linearGradient id="SVGID_5_" gradientUnits="userSpaceOnUse" x1="1351.554" y1="386.8381" x2="1432.6616" y2="477.0274" gradientTransform="matrix(-0.407 -0.9135 -0.9135 0.407 1431.333 1197.1973)">
		<stop  offset="0.4559" style="stop-color:#9C2F31"/>
		<stop  offset="1" style="stop-color:#680691"/>
	</linearGradient>
	<circle class="st7" cx="442.9" cy="92.6" r="35.6"/>
	
		<linearGradient id="SVGID_6_" gradientUnits="userSpaceOnUse" x1="1430.4053" y1="473.6931" x2="1395.0793" y2="435.9308" gradientTransform="matrix(-0.407 -0.9135 -0.9135 0.407 1431.333 1197.1973)">
		<stop  offset="0.2874" style="stop-color:#2B1544"/>
		<stop  offset="1" style="stop-color:#4B1372"/>
	</linearGradient>
	<path class="st8" d="M416.1,75.2c-9.6,14.8-5.4,34.6,9.4,44.1c8,5.2,17.5,6.3,26,4c7.2-2,13.8-6.6,18.2-13.4
		c9.6-14.8,5.4-34.6-9.4-44.1c-0.7-0.4-1.3-0.8-2-1.2C443.7,56.6,425.3,61.1,416.1,75.2z"/>
	<path class="st9" d="M452.6,66.5c-15.8,7.1-22.9,25.6-15.9,41.4c3.1,7,8.5,12.3,14.9,15.4c7.2-2,13.8-6.6,18.2-13.4
		c9.6-14.8,5.4-34.6-9.4-44.1c-0.7-0.4-1.3-0.8-2-1.2C456.3,65,454.4,65.7,452.6,66.5z"/>
	
		<linearGradient id="SVGID_7_" gradientUnits="userSpaceOnUse" x1="1327.356" y1="597.0326" x2="1489.9125" y2="597.0326" gradientTransform="matrix(-0.407 -0.9135 -0.9135 0.407 1431.333 1197.1973)">
		<stop  offset="0.4559" style="stop-color:#CC5940"/>
		<stop  offset="1" style="stop-color:#680691"/>
	</linearGradient>
	<path class="st10" d="M363.2,213.7c-1.4,8.6-21.7,18.4-29.4,13.1c-7.7-5.3-22.9-23.6-40.5-63.3c-16.8-37.9-25.4-60.7-23.8-71.4
		C271,81.4,288,72.6,297.5,77c0,0,6.1,28.2,25.4,71.4C341.3,189.9,363.2,213.7,363.2,213.7z"/>
	
		<linearGradient id="SVGID_8_" gradientUnits="userSpaceOnUse" x1="1365.4192" y1="283.4096" x2="1452.8439" y2="283.4096" gradientTransform="matrix(-0.407 -0.9135 -0.9135 0.407 1431.333 1197.1973)">
		<stop  offset="0.4559" style="stop-color:#CC5940"/>
		<stop  offset="1" style="stop-color:#680691"/>
	</linearGradient>
	<path class="st11" d="M616.9,13.7l12-3.4c-0.9-3.8,1-7.7,4.7-9.3c4.1-1.8,9,0,10.9,4.2c1.8,4.1,0,9-4.2,10.9
		c-3.5,1.6-7.6,0.4-9.9-2.5l-10.8,6.5C621,40.1,574.8,84,574.8,84s-11.8-16.5-21.4-38.3c-9.6-21.8-14.2-41.5-14.2-41.5
		S603-1.3,616.9,13.7z"/>
	
		<linearGradient id="SVGID_9_" gradientUnits="userSpaceOnUse" x1="1600.2347" y1="245.9852" x2="1610.8806" y2="245.9852" gradientTransform="matrix(-0.9026 -0.4304 -0.4304 0.9026 2097.5457 567.3779)">
		<stop  offset="0.4559" style="stop-color:#CC5940"/>
		<stop  offset="1" style="stop-color:#680691"/>
	</linearGradient>
	<path class="st12" d="M537.7,96.1c-1.3,2.7-0.1,5.8,2.5,7.1c2.7,1.3,5.8,0.1,7.1-2.5c1.3-2.7,0.1-5.8-2.5-7.1
		C542.1,92.3,539,93.4,537.7,96.1z"/>
	
		<linearGradient id="SVGID_10_" gradientUnits="userSpaceOnUse" x1="1616.854" y1="231.797" x2="1627.4999" y2="231.797" gradientTransform="matrix(-0.9026 -0.4304 -0.4304 0.9026 2097.5457 567.3779)">
		<stop  offset="0.4559" style="stop-color:#CC5940"/>
		<stop  offset="1" style="stop-color:#680691"/>
	</linearGradient>
	<path class="st13" d="M528.8,76.1c-1.3,2.7-0.1,5.8,2.5,7.1c2.7,1.3,5.8,0.1,7.1-2.5c1.3-2.7,0.1-5.8-2.5-7.1
		C533.3,72.3,530.1,73.4,528.8,76.1z"/>
	
		<linearGradient id="SVGID_11_" gradientUnits="userSpaceOnUse" x1="1633.4733" y1="217.6088" x2="1644.1191" y2="217.6088" gradientTransform="matrix(-0.9026 -0.4304 -0.4304 0.9026 2097.5457 567.3779)">
		<stop  offset="0.4559" style="stop-color:#CC5940"/>
		<stop  offset="1" style="stop-color:#680691"/>
	</linearGradient>
	<path class="st14" d="M519.9,56.1c-1.3,2.7-0.1,5.8,2.5,7.1c2.7,1.3,5.8,0.1,7.1-2.5c1.3-2.7,0.1-5.8-2.5-7.1
		C524.4,52.4,521.2,53.5,519.9,56.1z"/>
	
		<linearGradient id="SVGID_12_" gradientUnits="userSpaceOnUse" x1="1650.0925" y1="203.4205" x2="1660.7384" y2="203.4205" gradientTransform="matrix(-0.9026 -0.4304 -0.4304 0.9026 2097.5457 567.3779)">
		<stop  offset="0.4559" style="stop-color:#CC5940"/>
		<stop  offset="1" style="stop-color:#680691"/>
	</linearGradient>
	<path class="st15" d="M511,36.2c-1.3,2.7-0.1,5.8,2.5,7.1c2.7,1.3,5.8,0.1,7.1-2.5c1.3-2.7,0.1-5.8-2.5-7.1
		C515.5,32.4,512.3,33.5,511,36.2z"/>
	
		<linearGradient id="SVGID_13_" gradientUnits="userSpaceOnUse" x1="1666.7117" y1="189.2323" x2="1677.3575" y2="189.2323" gradientTransform="matrix(-0.9026 -0.4304 -0.4304 0.9026 2097.5457 567.3779)">
		<stop  offset="0.4559" style="stop-color:#CC5940"/>
		<stop  offset="1" style="stop-color:#680691"/>
	</linearGradient>
	<path class="st16" d="M502.1,16.2c-1.3,2.7-0.1,5.8,2.5,7.1c2.7,1.3,5.8,0.1,7.1-2.5c1.3-2.7,0.1-5.8-2.5-7.1
		C506.6,12.4,503.4,13.6,502.1,16.2z"/>
	<path class="st17" d="M249.6,231.9c-6-0.5-10.5-6.7-13.4-11.4c-2.5-4-7.6-10.7-3.6-15.3c1.6-1.8,3.8-2.7,6-3.6
		c14.9-6.2,30.2-12.3,46.3-13.5c2.3-0.2,4.8-0.3,7,0.5c6.3,2.1,4.1,6.5,1.5,10.9c-6.8,11.3-16.9,20.5-28.7,26.3c-4.3,2.1-9,6-14,6.2
		C250.3,231.9,250,231.9,249.6,231.9z"/>
	<path class="st17" d="M456.9,99.3c-3.2,1.4-4.7,5.2-3.2,8.4c1.4,3.2,5.2,4.7,8.4,3.2c3.2-1.4,4.7-5.2,3.2-8.4
		C463.9,99.3,460.1,97.9,456.9,99.3z"/>
	<path class="st18" d="M577.7,44.7c4.7-4.7,9.6-9.3,14.9-13.2c3.6-2.7,7.5-5.1,11.8-6.6c2.1-0.7,4.8-1,6.2,0.7
		c1.6,1.9,0.5,4.7-0.7,6.8c-5.1,9-11.2,17.4-17.9,25.2c-4.2,4.9-11.9,13.3-19.2,10.3c-5.4-2.2-7.7-6.8-4.9-12.2
		c1.3-2.5,3.3-4.6,5.3-6.6C574.7,47.7,576.2,46.2,577.7,44.7z"/>
</g>
</svg>
