<?xml version="1.0" encoding="utf-8"?>
<!-- Generator: Adobe Illustrator 25.2.1, SVG Export Plug-In . SVG Version: 6.00 Build 0)  -->
<svg version="1.1" id="Ebene_1" xmlns="http://www.w3.org/2000/svg" xmlns:xlink="http://www.w3.org/1999/xlink" x="0px" y="0px"
	 viewBox="0 0 118 111" style="enable-background:new 0 0 118 111;" xml:space="preserve">
<style type="text/css">
	.st0{fill:url(#SVGID_1_);}
	.st1{fill:url(#SVGID_2_);}
</style>
<g>
	<g>
		<linearGradient id="SVGID_1_" gradientUnits="userSpaceOnUse" x1="-3.2107" y1="67.5751" x2="65.3241" y2="100.8817">
			<stop  offset="0" style="stop-color:#54A0CD"/>
			<stop  offset="0.2523" style="stop-color:#4F92C7"/>
			<stop  offset="0.7256" style="stop-color:#436EB9"/>
			<stop  offset="1" style="stop-color:#3B56AF"/>
		</linearGradient>
		<path class="st0" d="M20.3,40.3H4.7c-2.1,0-3.9,1.7-3.9,3.9v62.2c0,2.1,1.7,3.9,3.9,3.9h15.5c2.1,0,3.9-1.7,3.9-3.9V44.1
			C24.2,42,22.4,40.3,20.3,40.3z"/>
		<linearGradient id="SVGID_2_" gradientUnits="userSpaceOnUse" x1="12.6291" y1="34.9816" x2="81.1639" y2="68.2882">
			<stop  offset="0" style="stop-color:#54A0CD"/>
			<stop  offset="0.2523" style="stop-color:#4F92C7"/>
			<stop  offset="0.7256" style="stop-color:#436EB9"/>
			<stop  offset="1" style="stop-color:#3B56AF"/>
		</linearGradient>
		<path class="st1" d="M117.3,50.5c-0.7-6-6.3-10.3-12.4-10.3H74.6c2.6-4.6,4-17.6,3.9-23C78.4,8.5,71.1,1.4,62.3,1.4h-3.2
			c-2.1,0-3.9,1.7-3.9,3.9c0,9-3.5,25.2-10.1,31.8c-4.4,4.4-8.2,6-13.2,8.5v58.3c7.6,2.5,17.3,6.3,32,6.3h25.4
			c8.4,0,14.9-7.8,11.6-15.9c4.9-1.3,8.6-5.9,8.6-11.2c0-1.5-0.3-3-0.8-4.3c8.3-2.3,11.4-12.6,5.6-19
			C116.5,57.3,117.7,54.1,117.3,50.5z"/>
	</g>
</g>
</svg>
