<?xml version="1.0" encoding="utf-8"?>
<!-- Generator: Adobe Illustrator 25.2.1, SVG Export Plug-In . SVG Version: 6.00 Build 0)  -->
<svg version="1.1" id="Ebene_1" xmlns="http://www.w3.org/2000/svg" xmlns:xlink="http://www.w3.org/1999/xlink" x="0px" y="0px"
	 viewBox="0 0 114 115" style="enable-background:new 0 0 114 115;" xml:space="preserve">
<style type="text/css">
	.st0{fill:url(#SVGID_1_);}
	.st1{fill:url(#SVGID_2_);}
</style>
<g>
	<g>
		<g>
			<linearGradient id="SVGID_1_" gradientUnits="userSpaceOnUse" x1="7.4477" y1="95.1649" x2="87.35" y2="45.1162">
				<stop  offset="0" style="stop-color:#FBAA4C"/>
				<stop  offset="0.2842" style="stop-color:#F79C4C"/>
				<stop  offset="0.8175" style="stop-color:#EB784B"/>
				<stop  offset="1" style="stop-color:#E76A4B"/>
			</linearGradient>
			<path class="st0" d="M75.5,50.4l-5.6,1.6c-1.2,0.3-2.4,0-3.2-0.9c-1.2-1.3-2.4-2.4-3.8-3.5c-0.9-0.8-1.4-1.9-1.2-3.1l1.1-5.9
				c0.2-1.4-0.6-2.9-1.9-3.4L57,33.8l-3.7-1.3c-1.4-0.5-2.9,0.1-3.6,1.4l-2.9,5.1c-0.6,1.1-1.7,1.7-3,1.6c-1.8-0.1-3.5,0-5.2,0.2
				c-1.2,0.2-2.4-0.4-3-1.3l-3.4-4.9c-0.8-1.2-2.4-1.6-3.7-1L25,35.1l-3.5,1.7c-1.3,0.6-2,2.1-1.6,3.5l1.6,5.6
				c0.3,1.2,0,2.4-0.9,3.3c-1.3,1.2-2.4,2.4-3.5,3.8c-0.8,0.9-1.9,1.4-3.1,1.2L8,53.1c-1.4-0.2-2.9,0.6-3.4,1.9L2,62.5
				c-0.5,1.4,0.1,2.9,1.4,3.6l5,2.8c1.1,0.6,1.7,1.8,1.6,3c-0.1,1.8,0,3.6,0.2,5.4c0.2,1.2-0.4,2.4-1.3,3.1l-4.8,3.3
				c-1.2,0.8-1.6,2.4-1,3.7L4.7,91l1.7,3.5c0.6,1.3,2.1,2,3.5,1.6l5.7-1.6c1.2-0.3,2.4,0,3.2,0.9c1.2,1.3,2.5,2.4,3.9,3.5
				c0.9,0.7,1.4,2,1.2,3.1l-1.1,5.8c-0.2,1.4,0.6,2.8,1.9,3.4l7.4,2.6c1.4,0.5,2.9-0.1,3.6-1.4l2.9-5.1c0.6-1.1,1.7-1.7,2.9-1.6
				c1.8,0.1,3.5,0,5.2-0.2c1.2-0.2,2.4,0.4,3.1,1.3l3.4,4.8c0.8,1.2,2.4,1.6,3.7,1l7-3.3c1.3-0.6,2-2.1,1.6-3.5l-1.6-5.7
				c-0.3-1.2,0-2.4,0.9-3.2c1.3-1.2,2.4-2.5,3.5-3.9c0.7-1,2-1.4,3.1-1.2l5.8,1.1c1.4,0.2,2.9-0.6,3.4-2l2.6-7.4
				c0.5-1.4-0.1-2.9-1.4-3.6l-5.1-2.9c-1.1-0.6-1.7-1.7-1.7-3c0-1.7,0-3.3-0.2-5c-0.2-1.2,0.4-2.4,1.3-3.1l4.9-3.4
				c1.2-0.8,1.6-2.4,1-3.7l-1.7-3.5l-1.7-3.5C78.4,50.7,76.9,50,75.5,50.4L75.5,50.4z M48.3,56.9c9,3.1,13.8,12.9,10.7,21.9
				c-3.1,9-12.9,13.8-21.9,10.7c-9-3.1-13.8-12.9-10.7-21.9C29.5,58.6,39.3,53.8,48.3,56.9L48.3,56.9z M48.3,56.9"/>
			<linearGradient id="SVGID_2_" gradientUnits="userSpaceOnUse" x1="-1.3187" y1="81.1694" x2="78.5836" y2="31.1207">
				<stop  offset="0" style="stop-color:#FBAA4C"/>
				<stop  offset="0.2842" style="stop-color:#F79C4C"/>
				<stop  offset="0.8175" style="stop-color:#EB784B"/>
				<stop  offset="1" style="stop-color:#E76A4B"/>
			</linearGradient>
			<path class="st1" d="M83.2,2.3l-0.6,3.4C82.5,6.4,82,7,81.3,7.2c-1,0.3-1.9,0.7-2.9,1.2c-0.6,0.3-1.4,0.3-2-0.1l-2.9-2.1
				c-0.7-0.5-1.7-0.4-2.3,0.2L68,9.7c-0.6,0.6-0.7,1.6-0.2,2.3l2,2.8c0.4,0.6,0.5,1.4,0.1,2c-0.5,0.9-0.9,1.9-1.2,2.9
				c-0.2,0.7-0.8,1.2-1.5,1.3l-3.5,0.6c-0.8,0.2-1.5,0.9-1.5,1.8l0.1,4.6c0,0.9,0.6,1.6,1.5,1.7l3.4,0.5c0.7,0.1,1.3,0.6,1.5,1.3
				c0.3,1,0.7,1.9,1.2,2.8c0.3,0.6,0.3,1.4-0.1,2l-2.1,2.9c-0.5,0.7-0.4,1.7,0.2,2.3l1.7,1.6l1.7,1.6c0.6,0.6,1.6,0.7,2.3,0.2l2.8-2
				c0.6-0.4,1.4-0.5,2-0.1c1,0.5,2,0.9,3,1.2c0.7,0.2,1.2,0.8,1.3,1.5l0.6,3.5c0.2,0.9,0.9,1.5,1.8,1.5l4.6-0.1
				c0.9,0,1.6-0.6,1.7-1.5l0.6-3.5c0.1-0.7,0.6-1.3,1.3-1.5c1-0.3,1.9-0.7,2.9-1.2c0.6-0.3,1.4-0.3,2,0.1l2.9,2
				c0.7,0.5,1.7,0.4,2.3-0.2l3.3-3.3c0.6-0.6,0.7-1.6,0.2-2.3l-2.1-2.8c-0.4-0.6-0.5-1.3-0.1-2c0.5-0.9,0.9-1.9,1.2-2.9
				c0.2-0.7,0.8-1.2,1.5-1.3l3.5-0.6c0.9-0.2,1.5-0.9,1.5-1.8l-0.1-4.6c0-0.9-0.6-1.6-1.5-1.7l-3.5-0.6c-0.7-0.1-1.3-0.6-1.5-1.3
				c-0.3-1-0.7-1.9-1.2-2.9c-0.3-0.6-0.3-1.4,0.1-2l2-2.9c0.5-0.7,0.4-1.7-0.2-2.3l-1.7-1.6l-1.7-1.6c-0.6-0.6-1.6-0.7-2.3-0.2
				L98,8.1c-0.6,0.4-1.3,0.5-2,0.1c-0.9-0.4-1.8-0.8-2.7-1.1c-0.7-0.2-1.2-0.8-1.3-1.5l-0.6-3.5c-0.2-0.9-0.9-1.5-1.8-1.5l-4.6,0.1
				C84.1,0.8,83.3,1.4,83.2,2.3L83.2,2.3z M94.4,18.3c4.1,3.9,4.2,10.4,0.3,14.5c-3.9,4.1-10.4,4.2-14.5,0.3
				c-4.1-3.9-4.2-10.4-0.3-14.5C83.8,14.5,90.3,14.4,94.4,18.3L94.4,18.3z M94.4,18.3"/>
		</g>
	</g>
</g>
</svg>
